<?xml version="1.0" encoding="utf-8"?>
<!-- Generator: Adobe Illustrator 23.0.6, SVG Export Plug-In . SVG Version: 6.00 Build 0)  -->
<svg version="1.1" id="Layer_1" xmlns="http://www.w3.org/2000/svg" xmlns:xlink="http://www.w3.org/1999/xlink" x="0px" y="0px"
	 viewBox="0 0 612 792" style="enable-background:new 0 0 612 792;" xml:space="preserve">
<style type="text/css">
	.st0{fill:#0F3977;}
	.st1{fill:#FFFFFF;}
	.st2{fill-rule:evenodd;clip-rule:evenodd;fill:#32446E;}
	.st3{fill-rule:evenodd;clip-rule:evenodd;fill:#FFFFFF;}
</style>
<g>
	<path class="st0" d="M-290,375c0.28-1.25,0.76-2.48,0.81-3.74c3.51-85.74,24.64-166.92,63.24-243.53
		c25.5-50.6,57.7-96.56,96.38-137.98C-80.04-63.27-22.8-105.95,42.2-138.18c47.97-23.79,98.26-40.71,150.86-50.79
		c29.32-5.62,58.86-9.18,88.7-10.22c1.09-0.04,2.16-0.53,3.24-0.81c14.33,0,28.67,0,43,0c1.41,0.28,2.82,0.76,4.24,0.82
		c85.38,3.61,166.4,24.33,242.54,63.07C688.22-78.38,774.75,7.03,834.6,119.31c27.98,52.49,47.01,108.24,58.02,166.67
		c5.27,28,8.57,56.27,9.57,84.78c0.05,1.42,0.54,2.83,0.82,4.24c0,14.33,0,28.67,0,43c-0.28,1.41-0.76,2.82-0.82,4.24
		c-3.58,85.21-24.2,166.11-62.85,242.1c-58.34,114.71-144.75,202.02-258.77,261.81c-50.88,26.68-104.68,45.11-161.12,55.9
		c-28.83,5.51-57.88,8.98-87.21,10.12c-1.42,0.06-2.83,0.54-4.24,0.82c-14.33,0-28.67,0-43,0c-1.41-0.28-2.82-0.76-4.24-0.82
		c-85.21-3.58-166.11-24.2-242.1-62.85c-114.71-58.34-202.02-144.75-261.81-258.76c-26.68-50.88-45.11-104.68-55.9-161.12
		c-5.51-28.83-8.97-57.88-10.12-87.21c-0.06-1.42-0.54-2.83-0.82-4.24C-290,403.67-290,389.33-290,375z M890.68,396.45
		C890.4,75.3,631.91-184.7,312.08-187.61c-324.8-2.95-587.01,257.91-589.7,578.9c-2.72,324.92,258.55,587.09,579.79,589.33
		C627.55,982.9,890.55,719.95,890.68,396.45z"/>
	<path class="st1" d="M890.68,396.45c-0.13,323.5-263.13,586.45-588.51,584.18c-321.24-2.24-582.51-264.42-579.79-589.33
		c2.68-320.99,264.89-581.85,589.7-578.9C631.91-184.7,890.4,75.3,890.68,396.45z M778.69,396.36
		C777.82,134.85,567.53-75.67,306.24-75.52C45.07-75.38-165.46,135.14-165.52,396.4c-0.06,261.21,210.39,472.11,472.03,472.1
		C568.14,868.49,777.98,657.58,778.69,396.36z M-123.1,28.97c7.04,11.94,13.91,23.58,21.31,36.14c-14.65-2.93-28.13-5.63-41.76-8.35
		c-2.84,3.86-5.47,7.44-8.11,11.03c6.72,12.36,13.25,24.38,20.31,37.36c-14.44-3.35-27.64-6.42-40.88-9.49
		c-3.61,4.93-6.89,9.42-10.6,14.5c25.29,5.8,49.86,11.44,74.6,17.11c1.56-2.13,2.9-3.97,4.29-5.86
		c-7.82-14.63-15.52-29.02-23.74-44.41c17.43,3.31,33.53,6.37,49.57,9.42c1.57-2.19,2.82-3.92,4.23-5.88
		c-12.76-21.89-25.47-43.69-38.51-66.07C-116.11,19.52-119.45,24.03-123.1,28.97z M-187.24,363.27c-14-2.12-27.8-2.67-41.39-5.41
		c6.23-4.92,12.49-9.27,18.76-13.61c1.64-1.13,3.58-2.02,3.1-5.02c-5.85-6.34-11.99-12.98-18.12-19.62
		c0.19-0.31,0.39-0.62,0.58-0.92c13.64,1.42,27.29,2.84,41.31,4.3c0.63-6.03,1.2-11.4,1.8-17.16c-23.29-2.48-46.03-4.91-69.11-7.36
		c-0.59,5.39-1.11,10.15-1.63,14.95c7.73,8.37,15.33,16.61,23.12,25.04c-9.72,6.78-18.85,13.14-27.93,19.47
		c-0.47,5.03-0.9,9.77-1.38,14.92c23.28,2.53,45.96,5.19,68.95,7.27C-188.5,374.24-187.91,369.14-187.24,363.27z M838.59,366.64
		c1.02,0.9,1.58,1.25,1.96,1.74c6.56,8.27,19.97,7.59,25.85-4.26c2.37-4.78,2.7-9.91,2.27-15.12c-0.67-7.96-1.34-15.92-2.07-23.88
		c-0.18-1.92-0.61-3.81-0.94-5.81c-23.22,2.05-45.86,4.04-69.16,6.1c1.38,13.68,2.63,26.75,4.06,39.8c0.21,1.93,1.07,3.86,1.91,5.65
		c3.55,7.56,10.27,11.47,19.05,10.94c8-0.48,13.27-4.74,16.02-12.2C837.83,368.83,838.09,368.05,838.59,366.64z M240.26-93.13
		c9.42-0.01,17.22-1.47,24.35-5.5c23.03-13.04,25.73-43.23,4.21-58.9c-15.3-11.15-40.82-9.07-54.33,4.65
		c-16.98,17.23-12.98,43.91,8.33,55.33C228.66-94.44,234.94-93.03,240.26-93.13z M342.17-95.37c4.27-0.61,8.68-0.73,12.77-1.94
		c13.01-3.84,22.27-11.99,25.74-25.39c3.51-13.52-0.87-25.04-10.9-34.33c-13.15-12.18-37.42-13.62-52.13-3.41
		c-20.71,14.38-20.73,42.98-0.05,57.39C324.99-97.91,333.28-95.94,342.17-95.37z M516.57-93.72c7.88-1.16,12.77-4.85,14.07-11.88
		c1.35-7.26-1.87-13-7.54-17.34c-2.22-1.7-4.74-3.12-7.32-4.19c-8.44-3.48-16.97-6.76-25.49-10.06c-1.01-0.39-2.14-0.5-3.43-0.79
		c-8.41,21.39-16.72,42.5-25,63.57c0.88,0.6,1.24,0.96,1.68,1.13c10.35,4.08,20.62,8.4,31.12,12.06c4.12,1.44,8.79,2.12,13.14,1.88
		c7.26-0.39,12.15-4.83,15.08-11.4c2.92-6.53,2.05-12.64-2.23-18.28C519.58-90.44,518.32-91.72,516.57-93.72z M857.35,274.23
		c-2.3,0.54-4.23,0.95-6.15,1.43c-10.64,2.7-21.26,5.51-31.93,8.09c-6.86,1.66-13.14,0.43-17.3-5.73c-4.33-6.4-5.9-13.4-2.1-20.73
		c2.13-4.12,5.78-6.32,10.15-7.45c11.6-2.99,23.21-5.94,34.8-8.94c1.22-0.31,2.38-0.83,3.75-1.31c-1.45-5.5-2.79-10.58-4.34-16.46
		c-15.41,4.26-30.47,7.82-45.09,12.69c-9.64,3.21-14.72,11.4-15.69,21.39c-1.21,12.52,1.82,24.22,9.4,34.37
		c6.25,8.38,15.04,11.3,25.2,9.74c5.25-0.81,10.4-2.27,15.56-3.57c9.17-2.3,18.31-4.69,27.89-7.15
		C860.08,284.97,858.74,279.72,857.35,274.23z M-0.15,6.61C-23.82-3.58-46.82-13.48-69.87-23.41c-5.08,4.69-9.8,9.05-14.66,13.54
		c8.88,23.36,17.65,46.41,26.59,69.91c4.77-4.47,8.99-8.41,13.17-12.33c-1.88-4.76-3.58-9.06-5.38-13.63
		c7.77-7.17,15.41-14.22,22.95-21.19c4.78,2.15,9.01,4.04,13.55,6.08C-9.37,15.05-5.11,11.15-0.15,6.61z M550.81-49.61
		c9.16,5.43,17.98,10.66,26.72,15.84c-0.61,5.37-1.14,10.12-1.69,14.9c5.2,3.06,10.02,5.89,15.52,9.13
		c2.97-25.48,5.84-50.2,8.75-75.16c-5.89-3.48-11.55-6.83-17.15-10.15c-19.89,15.27-39.33,30.2-59.17,45.44
		c5.62,3.31,10.48,6.17,15.47,9.11C543.1-43.51,546.73-46.39,550.81-49.61z M762.6,154.77c-3.93-2.83-7.48-5.29-10.91-7.89
		c-4.6-3.49-7.9-8.06-10.38-13.23c-2.44-5.11-3.33-10.47-2.02-16.03c3.63-15.44,21.6-20.8,33.94-10.13
		c6.71,5.8,10.22,13.4,11.94,21.93c0.6,3,0.98,6.04,1.54,9.56c4.43-2.74,8.33-5.17,12.13-7.52c0-1.89,0.24-3.42-0.04-4.85
		c-3.05-15.78-10.54-28.81-24.8-36.81c-12.29-6.89-24.93-6.79-36.75,1.47c-11.84,8.27-16.03,20.08-13.99,34.04
		c1.53,10.53,6.93,19.32,14.14,26.99c3.75,4,7.95,7.48,12.96,10C754.51,159.74,758.44,157.33,762.6,154.77z M257.21,922.63
		c-0.93,0.73-1.39,1.21-1.95,1.52c-7.35,4.13-9.5,10.85-8.87,18.64c0.64,7.84,5.1,13.25,12.2,16.3c6.47,2.78,13.27,3.06,20.02,1.09
		c7.3-2.13,12.02-6.92,13.65-14.44c1.65-7.57,0.09-14.21-6.15-19.29c-0.64-0.52-1.51-0.76-2.37-1.18c1.19-1.11,1.52-1.49,1.91-1.77
		c6.16-4.29,8.21-10.38,7.03-17.47c-1.19-7.15-5.51-12.3-12.44-14.23c-4.52-1.26-9.55-1.73-14.22-1.26
		c-8.12,0.83-13.59,6.51-15.28,14.29C249.24,911.88,251.55,917.59,257.21,922.63z M328.87,924.77c-1.11,0.71-1.73,1.01-2.23,1.44
		c-11.22,9.95-8.56,27.26,5.13,33.24c5.9,2.57,12.09,2.44,18.15,1.01c8.01-1.89,14.06-6.48,15.74-14.91
		c1.77-8.86-0.28-16.57-8.69-21.53c-0.49-0.29-0.77-0.94-1.18-1.45c0.59-0.67,1.03-1.17,1.48-1.66c8.99-9.84,5-25.32-7.7-29.56
		c-5.18-1.73-10.48-1.66-15.75-0.23c-9.81,2.65-14.95,10.01-14.1,20.06C320.21,916.95,323.27,921.07,328.87,924.77z M150.29-132.37
		c10.09-2.92,19.57-5.67,29.32-8.49c-1.19-4.21-2.21-7.84-3.36-11.92c-15.42,4.38-30.51,8.67-45.83,13.02
		c6.42,22.58,12.67,44.56,18.97,66.72c5.71-1.65,10.78-3.11,16.27-4.7c-2.55-9.2-5.01-18.09-7.58-27.39
		c9.92-2.88,19.41-5.63,29.29-8.5c-1.22-4.26-2.29-7.98-3.39-11.84c-10.14,2.82-19.54,5.43-29.36,8.16
		C153.13-122.43,151.82-127,150.29-132.37z M461.5-133.84c0.98-4.33,1.81-7.98,2.74-12.08c-22.24-5.03-43.88-9.93-65.76-14.88
		c-0.94,4.39-1.75,8.18-2.58,12.07c8.6,2.04,16.44,3.89,24.37,5.77c-4.23,18.8-8.3,36.91-12.44,55.3c5.86,1.31,11.01,2.47,16.53,3.7
		c4.26-18.62,8.43-36.87,12.65-55.3C445.37-137.41,453.14-135.69,461.5-133.84z M423.51,878.77c-11.76,2.39-23.1,4.69-35.05,7.12
		c2.65,12.96,5.21,25.52,7.82,38.29c2.71-0.76,4.59-1.53,6.54-1.78c2.95-0.38,5.98-0.73,8.91-0.47c4.25,0.37,7.21,3.21,8.15,7.02
		c0.91,3.72-0.48,7.78-4.05,9.97c-2.04,1.25-4.6,2.16-6.97,2.28c-4.07,0.2-8.18-0.34-12.88-0.6c0.75,3.73,1.48,7.38,2.17,10.8
		c9.02,3.15,21.82,1.09,29.44-4.52c8.07-5.94,10.59-16.11,6.41-25.97c-3.69-8.71-12.82-13.71-22.34-12.26
		c-1.43,0.22-2.88,0.32-4.64,0.52c-0.83-4.3-1.59-8.28-2.41-12.52c7.41-1.57,14.2-3,21.56-4.56
		C425.29,887.62,424.46,883.47,423.51,878.77z M-167.77,254.22c5.9-16.74,11.65-33.08,17.53-49.79c-4.18-1.41-7.86-2.65-11.75-3.97
		c-4.06,11.42-7.93,22.31-11.91,33.49c-18.19-6.38-35.8-12.55-53.6-18.79c-1.96,5.65-3.72,10.75-5.56,16.07
		C-211.1,238.96-189.69,246.5-167.77,254.22z M648.57,21.22c-9.47-7.7-18.48-15.04-27.69-22.53c12.04-14.87,23.83-29.43,35.75-44.17
		c-4.63-3.76-8.82-7.16-13.21-10.72c-14.73,18.15-29.07,35.83-43.67,53.82c13.77,11.18,27.27,22.13,40.97,33.25
		C643.45,27.53,645.85,24.58,648.57,21.22z M649.31,39.39c12.16,12.83,24.11,25.44,35.8,37.76c3.34-2.88,6.29-5.43,9.38-8.1
		c-8.38-8.92-16.28-17.32-24.34-25.91c14.01-13.31,27.46-26.08,41.19-39.12c-4.27-4.18-8.12-7.95-12.16-11.89
		C682.54,7.89,666.02,23.56,649.31,39.39z M-30.02-56.54C-16.94-37.36-4.13-18.55,8.97,0.65C23.63-9.34,37.87-19.03,52.49-29
		c-2.5-3.62-4.71-6.81-7.03-10.18c-10.02,6.77-19.6,13.24-29.45,19.89C5.16-35.17-5.32-50.51-15.96-66.09
		C-20.84-62.78-25.32-59.73-30.02-56.54z M-148.42,172.47c-17.19-8.72-33.76-17.12-50.73-25.73c-2.64,5.27-5.05,10.09-7.62,15.23
		c20.83,10.58,41.2,20.93,61.76,31.37c8.17-16.07,15.97-31.43,23.93-47.09c-3.94-1.94-7.42-3.66-11.15-5.49
		C-137.74,151.54-142.94,161.74-148.42,172.47z M815.92,153.51c-21.48,9.18-42.37,18.11-63.67,27.21
		c6.99,16.33,13.81,32.27,20.74,48.46c4.06-1.76,7.51-3.26,11.33-4.93c-4.67-11.06-9.18-21.72-13.84-32.76
		c17.43-7.48,34.48-14.8,52.13-22.37C820.37,163.92,818.31,159.09,815.92,153.51z M104.89-69.64
		c-10.92,5.49-21.25,10.68-31.97,16.08c-8.68-17.15-17.11-33.82-25.68-50.76c-5.4,2.71-10.22,5.12-15.22,7.63
		c10.56,20.95,20.85,41.36,31.25,62c16.02-8.09,31.41-15.86,47.12-23.79C108.49-62.34,106.82-65.72,104.89-69.64z M-243.54,271.89
		c22.67,5.47,44.73,10.8,67.35,16.26c1.38-5.64,2.67-10.88,4.06-16.55c-22.56-5.44-44.78-10.81-67.38-16.26
		C-240.88,260.94-242.13,266.07-243.54,271.89z M200.05,951.39c4.7-22.92,9.25-45.16,13.89-67.8c-4.99-1.01-9.64-1.96-14.79-3
		c-4.65,22.75-9.23,45.11-13.88,67.83C190.23,949.41,194.74,950.32,200.05,951.39z"/>
	<path class="st0" d="M778.69,396.36c-0.71,261.22-210.54,472.13-472.17,472.14c-261.64,0.01-472.09-210.89-472.03-472.1
		c0.06-261.25,210.58-471.77,471.75-471.92C567.53-75.67,777.82,134.85,778.69,396.36z M6.3,673.84c1.35,0.59,2.54,1.21,3.8,1.62
		c5.76,1.91,12.07-0.05,14.72-5.3c4.49-8.9,4.22-17.28-5.8-22.49c-1.88-0.98-3.99-2.17-5.09-3.85c-3.27-4.99-7.29-8.95-12.44-12
		c-2.98-1.77-3.12-3.66-1.54-6.87c0.51-1.04,1.1-2.08,1.83-2.97c6.22-7.6,12.28-15.36,18.8-22.7c7.67-8.64,17.3-14.53,28.18-18.37
		c11.43-4.04,21.76-9.92,30.92-17.93c3.88-3.39,8.43-6.02,12.28-9.43c5.89-5.23,12.84-6.64,20.33-6.66c1.17,0,2.33-0.06,3.5-0.01
		c10.02,0.39,19.94,0.09,29.75-2.51c5.13-1.36,8.72,0.9,10.47,6c0.79,2.3,1.05,4.79,1.54,7.12c6.31,1.2,8.26,2.81,8.44,6.84
		c0.15,3.3-1.6,4.82-4.75,4.72c-0.63,5.62,4.53,7.18,7.08,10.93c-2.15,2.63-4.26,5.23-6.38,7.83c1.75,1.41,2.97,2.39,4.66,3.76
		c-5.52,8.28-10.9,15.91-20.85,18.73c-5.04,1.43-6.65,3.39-6.65,8.52c0,9.52,4.17,16.8,12.77,20.95
		c11.25,5.42,21.2,12.46,29.86,21.45c8.37,8.68,17.44,16.38,28.61,21.45c8.36,3.8,16.22,3.69,24.46-0.37
		c5.25-2.59,11.65-2.38,16.5-6.22c0.11-0.09,0.33-0.06,0.49-0.05c3.99,0.2,6.98-1.81,8.57-3.48c4.05-1.21,6.8-2.03,9.17-2.74
		c2.91-13.62-1.59-20.16-13.07-21.51c-0.99-0.12-1.99-0.18-2.98-0.33c-3.78-0.57-7.78-0.54-11.29-1.85
		c-14.49-5.39-27.59-13.28-39.28-23.41c-3.44-2.98-3.57-4.63-1.53-8.8c2.48-5.07,6.3-9.03,10.82-12.24
		c7.77-5.53,13.54-12.71,18.35-20.84c9.1-15.41,15.37-31.66,16.51-49.76c0.68-10.71,5.35-19.78,13.33-27.13
		c7.42-6.83,15.82-12.25,24.68-16.9c32.43-17.01,66.45-29.99,101.93-39.02c18.08-4.6,35.29-10.4,49.86-22.9
		c10.65-9.14,19.57-18.98,22.98-32.95c0.56-2.31,1.59-4.38,5.14-4.75c0.6,2.08,1.19,4.15,1.81,6.32c3.52,0.53,6.5-1.04,9.24-2.86
		c2.76-1.83,5.21-4.13,7.85-6.17c4.09-3.16,8.36-5.91,13.96-5.57c0.91,2.03,1.68,3.77,2.64,5.93c9.27-7.88,18.67-14.16,30.6-7.12
		c1.42-1.28,2.4-2.18,3.4-3.05c9.15-7.91,19.29-13.54,31.73-14.31c2.14-0.13,4.37-1.43,6.25-2.65c8.49-5.49,17.54-9.48,27.56-11.24
		c3.77-0.66,7.53-1.47,11.18-2.59c7.84-2.39,14.89-1.28,21.95,3.03c4.61,2.82,9.95,4.54,15.09,6.38c2.11,0.75,4.57,0.52,6.49,0.69
		c1.58-1.17,2.76-2.04,3.8-2.81c5.27,1.38,10.18,3.18,15.25,3.85c4.92,0.65,9.99,0.14,15.04,0.14c0.34,2.29,0.56,3.73,0.8,5.35
		c4.08,1.67,8.27,2.63,12.61,1.42c6.71-1.86,13.38,0.84,20.08,0.04c0.89-0.11,2.1,0.36,2.77,0.98c2.83,2.59,6.04,3.14,9.71,1.84
		c0.84,1.47,1.54,2.7,2.2,3.84c9.19,0.51,16.43-5.29,18.71-15.41c2.14-9.49,2.82-19.16,0.9-28.75c-0.66-3.31-2.02-6.83-4.09-9.45
		c-4.73-6.01-10.19-11.43-15.17-17.25c-6.06-7.07-12.74-12.77-22.85-12.1c-0.32,0.02-0.65-0.12-0.98-0.16
		c-9.86-1.43-19.57-1.37-28.99,2.51c-3.22,1.33-6.58,2.39-9.94,3.3c-4.96,1.34-9.96,1.5-14.52-1.3c-9.22-5.68-19.13-5.85-29.46-4.41
		c-8.56,1.19-17.2,1.86-25.82,2.55c-6.47,0.52-13,0.39-19.44,1.11c-14.22,1.58-28.38,3.72-42.6,5.23c-11.23,1.2-22.28,0.2-32.73-4.7
		c-7.69-3.6-15.45-7.05-23.17-10.59c-1.77-0.81-3.49-1.73-5.84-2.89c6.28-4.02,8.88-9.24,7.77-16.03c-0.29-1.8-0.89-3.55-1.26-5.35
		c-1.43-7.06-2.33-14.16-0.64-21.3c0.31-1.33,1.03-2.56,1.88-4.59c2.51,1.91,4.34,3.3,6.29,4.77c1.82-4.41,0.96-8.53-0.92-12.57
		c-1.82-3.91-1.75-7.72,0.46-11.46c0.58-0.98,1.1-2,1.38-2.52c-0.72-3.82-1.92-7.09-1.83-10.33c0.23-8.1-0.26-15.96-4.33-23.2
		c5.38-8.21,7.34-16.31,0.75-24.81c-3.9,1.17-7.78,2.45-10.91-1.57c-3.6-4.61-3.29-9.2-0.16-13.92c-3.14-3.61-6.12-7.18-9.26-10.61
		c-4.83-5.28-8.19-11.24-9.66-18.32c-0.53-2.55-1.47-5.32-3.09-7.27c-9.69-11.73-21.44-20.46-36.75-23.3
		c-5.06-0.94-10.24-1.56-15.37-1.62c-9.51-0.12-19,0.15-27.31-4.52c-5.64,3.97-7.2,4.59-11.53,3.85
		c-10.57-1.82-19.81,0.66-27.57,8.18c-2.28,2.21-4.93,3.27-8.12,3.18c-3-0.08-6.02-0.22-8.99,0.05c-5.39,0.5-10.9,0.83-15.33,4.59
		c3.77,7.85,3.15,9.61-4.74,12.98c-2.71,1.16-5.58,1.93-8.31,2.86c0.7,6.96,0.31,7.23-5.59,10.91c-3.35,2.08-6.5,4.69-9.22,7.55
		c-6.06,6.37-11.78,13.06-17.9,19.9c2.55,3.76,0.8,6.62-2.79,9.62c-3.13,2.61-5.46,6.18-8,9.16c0.76,1.68,1.28,2.84,1.76,3.91
		c-2.66,3.89-5.17,7.55-7.81,11.4c3.76,2.38,3.96,5.4,3.6,8.98c-0.83,8.31-4.55,15.29-9.54,21.64c-5.59,7.12-9.17,15.09-10.78,23.89
		c-1.02,5.55-1.55,11.2-2.07,16.82c-0.5,5.52-0.91,10.89-5.68,14.88c-1.96,1.64-3.17,4.14-2.98,6.99c6.67,0.16,7.88,0.99,9.28,6.17
		c-4.11,7.86-4.29,10.87-1.07,17.79c1.88-1.22,3.76-2.44,5.47-3.54c4.9,3.31,5.46,5.46,1.95,8.91c-3.79,3.73-7.88,7.19-12.07,10.46
		c-19.74,15.39-37.03,33.05-50.67,54.12c-6.79,10.49-13.85,20.84-20.01,31.69c-6.09,10.72-14.21,18.75-24.56,25.51
		c-22.02,14.38-41.99,31.76-64.83,44.99c-2.22,1.29-4.77,2.57-7.25,2.76c-7.29,0.58-14.64,1.03-21.93,0.7
		c-4.39-0.2-8.83-1.61-13.02-3.12c-4.9-1.76-8.21-5.42-10.14-10.4c-4.92-12.69-3.71-24.77,3.1-36.44
		c8.36-14.3,20.43-24.37,35.3-31.37c24.98-11.75,51.54-17.89,78.69-21.51c15.81-2.1,29.17-7.77,38.66-21.02
		c1.34-1.87,2.61-3.79,3.86-5.6c1.8,0.08,3.29,0.22,4.77,0.21c11.78-0.1,21.27-9.82,19.98-20.73c-0.32-2.75-1.4-5.48-2.52-8.05
		c-2.6-5.99-2.93-11.7,0.12-17.77c1.25-2.48,1.45-5.84,1.14-8.69c-0.59-5.39-2.79-10.45-6.66-14.25c-3.58-3.52-6.08-7.42-7.34-12.67
		c-0.99,1.22-1.64,2.17-2.44,2.96c-0.85,0.84-1.84,1.54-3.28,2.73c-2.38-8.36,2.78-15.18,2.23-23.33
		c-6.32,5.31-12.15,10.22-14.92,17.66c-0.84,2.25-1.34,4.99-0.88,7.29c1.33,6.68-0.45,12.59-3.64,18.19
		c-3.63,6.36-7.58,12.55-11.33,18.84c-6.23,10.46-4.41,20.23,5.15,27.83c1.41,1.12,2.83,2.22,4.08,3.2c0.28,4.08-1.74,6.6-4.42,8.31
		c-3.62,2.31-7.43,4.49-11.44,6.01c-13.32,5.07-27.33,7.32-41.41,8.83c-26.37,2.82-51.22,10.22-74.17,23.57
		c-15.88,9.24-29.9,20.62-39.76,36.45c-5.01,8.05-8.17,16.76-8.4,26.34c-0.38,15.82,5.65,29.22,15.8,40.96
		c9.53,11.02,21.33,19.02,34.36,25.32c1.61,0.78,3.19,1.61,4.87,2.46c-4.42,16.14-12.82,29.52-23.76,41.43
		c-0.62,0.68-1.72,1.12-2.67,1.27c-6.44,1.02-9.55,5.57-11.87,10.98c-0.98,2.29-1.53,4.83-2.81,6.93
		c-11.52,18.85-20.89,39.14-36.92,54.97c-3.65,3.61-6.21,8.08-6.71,13.14c-0.77,7.76-1.42,15.62-1.05,23.39
		c0.4,8.18,7.41,16.45,19.21,13.08c1.92-0.55,3.81-1.18,6.06-1.88c6.23,4.03,12.81,2.98,19.04,0.18
		C-7.3,676.88-0.65,676.85,6.3,673.84z"/>
	<path class="st0" d="M-123.1,28.97c3.65-4.94,6.99-9.46,10.71-14.5c13.04,22.38,25.75,44.18,38.51,66.07
		c-1.41,1.96-2.66,3.69-4.23,5.88c-16.04-3.05-32.14-6.11-49.57-9.42c8.22,15.38,15.92,29.77,23.74,44.41
		c-1.38,1.89-2.73,3.73-4.29,5.86c-24.75-5.68-49.31-11.31-74.6-17.11c3.71-5.07,7-9.57,10.6-14.5c13.23,3.07,26.44,6.14,40.88,9.49
		c-7.06-12.99-13.59-25.01-20.31-37.36c2.64-3.6,5.27-7.17,8.11-11.03c13.64,2.73,27.11,5.42,41.76,8.35
		C-109.19,52.56-116.06,40.91-123.1,28.97z"/>
	<path class="st0" d="M-187.24,363.27c-0.67,5.86-1.26,10.97-1.93,16.83c-22.99-2.07-45.67-4.73-68.95-7.27
		c0.48-5.16,0.92-9.89,1.38-14.92c9.08-6.33,18.21-12.69,27.93-19.47c-7.79-8.43-15.39-16.67-23.12-25.04
		c0.52-4.8,1.04-9.55,1.63-14.95c23.07,2.46,45.81,4.88,69.11,7.36c-0.61,5.75-1.17,11.13-1.8,17.16
		c-14.02-1.46-27.67-2.88-41.31-4.3c-0.19,0.31-0.39,0.62-0.58,0.92c6.13,6.64,12.27,13.28,18.12,19.62c0.47,3-1.47,3.89-3.1,5.02
		c-6.27,4.34-12.54,8.69-18.76,13.61C-215.04,360.6-201.24,361.16-187.24,363.27z"/>
	<path class="st0" d="M838.59,366.64c-0.5,1.41-0.77,2.19-1.05,2.96c-2.76,7.46-8.03,11.72-16.02,12.2
		c-8.77,0.52-15.5-3.39-19.05-10.94c-0.84-1.79-1.7-3.72-1.91-5.65c-1.43-13.05-2.69-26.11-4.06-39.8
		c23.29-2.05,45.94-4.05,69.16-6.1c0.33,2,0.76,3.89,0.94,5.81c0.73,7.96,1.4,15.92,2.07,23.88c0.44,5.22,0.1,10.34-2.27,15.12
		c-5.88,11.85-19.29,12.53-25.85,4.26C840.17,367.89,839.62,367.54,838.59,366.64z M827.35,340.1c-5.95,0.52-11,0.96-16.79,1.46
		c0.85,5.8,1.32,11.22,2.53,16.47c0.95,4.09,3.73,5.59,7.82,5.35c4.27-0.25,7.15-3.01,7.25-7.88
		C828.26,350.58,827.67,345.64,827.35,340.1z M839.8,339.03c0.52,4.22,0.69,7.88,1.48,11.39c0.88,3.92,4.07,6.02,7.68,5.72
		c3.67-0.3,6.3-2.83,6.48-6.97c0.15-3.59-0.32-7.21-0.55-11.44C849.8,338.16,845.24,338.56,839.8,339.03z"/>
	<path class="st0" d="M240.26-93.13c-5.32,0.11-11.61-1.3-17.44-4.43c-21.31-11.42-25.31-38.1-8.33-55.33
		c13.51-13.71,39.03-15.79,54.33-4.65c21.52,15.68,18.82,45.86-4.21,58.9C257.48-94.6,249.69-93.15,240.26-93.13z M242.54-107.68
		c13.58,0.08,22.99-8.15,23.13-20.22c0.15-13.2-8.39-22.26-20.99-22.26c-13.34-0.01-22.87,8.53-22.94,20.55
		C221.66-116.71,230.16-107.75,242.54-107.68z"/>
	<path class="st0" d="M342.17-95.37c-8.89-0.57-17.19-2.54-24.56-7.68c-20.68-14.41-20.67-43.01,0.05-57.39
		c14.71-10.22,38.99-8.78,52.13,3.41c10.03,9.29,14.41,20.81,10.9,34.33c-3.47,13.4-12.73,21.55-25.74,25.39
		C350.86-96.1,346.44-95.98,342.17-95.37z M341.23-152.66c-12.78,0.12-21.52,9.12-21.32,21.94c0.19,12.12,9.75,20.78,22.8,20.68
		c12.61-0.1,21.48-9.3,21.27-22.06C363.77-144.39,354.49-152.78,341.23-152.66z"/>
	<path class="st0" d="M516.57-93.72c1.75,2,3.01,3.28,4.08,4.69c4.29,5.65,5.15,11.75,2.23,18.28c-2.93,6.57-7.82,11.01-15.08,11.4
		c-4.35,0.24-9.02-0.44-13.14-1.88c-10.5-3.67-20.77-7.98-31.12-12.06c-0.44-0.17-0.8-0.53-1.68-1.13
		c8.28-21.06,16.59-42.17,25-63.57c1.29,0.29,2.42,0.4,3.43,0.79c8.51,3.31,17.04,6.58,25.49,10.06c2.58,1.07,5.11,2.49,7.32,4.19
		c5.67,4.33,8.88,10.08,7.54,17.34C529.34-98.56,524.45-94.88,516.57-93.72z M482.11-79.18c5.4,1.88,10.14,3.88,15.08,5.16
		c4.75,1.23,7.96-0.75,9.55-4.99c1.4-3.71,0.16-7.49-3.96-9.68c-4.5-2.38-9.35-4.12-14.49-6.34
		C486.15-89.53,484.25-84.65,482.11-79.18z M492.9-106.64c3.09,1.28,5.79,2.45,8.53,3.51c0.91,0.35,1.91,0.54,2.89,0.65
		c4.08,0.45,7.03-1.26,8.31-4.73c1.26-3.43,0.12-6.94-3.46-8.85c-3.3-1.76-6.88-2.97-10.74-4.6
		C496.49-115.73,494.76-111.33,492.9-106.64z"/>
	<path class="st0" d="M857.35,274.23c1.39,5.49,2.72,10.74,4.15,16.37c-9.57,2.46-18.72,4.85-27.89,7.15
		c-5.16,1.29-10.31,2.76-15.56,3.57c-10.16,1.57-18.95-1.36-25.2-9.74c-7.58-10.15-10.61-21.85-9.4-34.37
		c0.97-10,6.05-18.19,15.69-21.39c14.62-4.86,29.68-8.42,45.09-12.69c1.55,5.88,2.89,10.96,4.34,16.46c-1.37,0.48-2.53,1-3.75,1.31
		c-11.6,3-23.21,5.95-34.8,8.94c-4.37,1.13-8.02,3.33-10.15,7.45c-3.8,7.34-2.23,14.33,2.1,20.73c4.16,6.16,10.44,7.39,17.3,5.73
		c10.67-2.58,21.29-5.39,31.93-8.09C853.12,275.18,855.05,274.77,857.35,274.23z"/>
	<path class="st0" d="M-0.15,6.61c-4.96,4.54-9.22,8.44-13.5,12.37c-4.54-2.04-8.77-3.93-13.55-6.08
		c-7.55,6.97-15.19,14.02-22.95,21.19c1.81,4.58,3.5,8.87,5.38,13.63c-4.19,3.92-8.4,7.86-13.17,12.33
		c-8.94-23.5-17.7-46.55-26.59-69.91c4.86-4.49,9.59-8.85,14.66-13.54C-46.82-13.48-23.82-3.58-0.15,6.61z M-38.98,7.51
		C-48.1,3.37-56.31-0.63-64.69-4.24c-0.24,0.32-0.48,0.64-0.72,0.96C-62,5.06-58.59,13.4-54.95,22.3
		C-49.42,17.18-44.58,12.69-38.98,7.51z"/>
	<path class="st0" d="M550.81-49.61c-4.08,3.22-7.71,6.09-11.55,9.12c-4.99-2.94-9.85-5.8-15.47-9.11
		c19.84-15.24,39.28-30.16,59.17-45.44c5.6,3.31,11.27,6.66,17.15,10.15c-2.91,24.96-5.78,49.68-8.75,75.16
		c-5.5-3.24-10.32-6.07-15.52-9.13c0.54-4.78,1.08-9.53,1.69-14.9C568.79-38.95,559.97-44.18,550.81-49.61z M583.33-74.39
		c-0.4-0.15-0.8-0.3-1.19-0.45c-7.01,5.64-14.03,11.28-21.5,17.28c6.54,3.85,12.3,7.24,18.76,11.05
		C580.8-56.47,582.06-65.43,583.33-74.39z"/>
	<path class="st0" d="M762.6,154.77c-4.16,2.56-8.09,4.97-12.25,7.53c-5.02-2.52-9.21-6.01-12.96-10
		c-7.21-7.67-12.61-16.46-14.14-26.99c-2.03-13.95,2.15-25.77,13.99-34.04c11.83-8.26,24.47-8.36,36.75-1.47
		c14.26,8,21.76,21.03,24.8,36.81c0.28,1.43,0.04,2.97,0.04,4.85c-3.79,2.35-7.7,4.77-12.13,7.52c-0.56-3.52-0.94-6.56-1.54-9.56
		c-1.71-8.53-5.23-16.13-11.94-21.93c-12.34-10.67-30.32-5.31-33.94,10.13c-1.3,5.55-0.42,10.92,2.02,16.03
		c2.47,5.17,5.77,9.74,10.38,13.23C755.13,149.48,758.68,151.94,762.6,154.77z"/>
	<path class="st0" d="M257.21,922.63c-5.66-5.04-7.97-10.75-6.45-17.79c1.68-7.78,7.16-13.46,15.28-14.29
		c4.67-0.47,9.7-0.01,14.22,1.26c6.93,1.93,11.25,7.09,12.44,14.23c1.18,7.08-0.87,13.18-7.03,17.47c-0.4,0.28-0.72,0.66-1.91,1.77
		c0.86,0.42,1.73,0.66,2.37,1.18c6.24,5.08,7.79,11.72,6.15,19.29c-1.63,7.52-6.36,12.31-13.65,14.44
		c-6.76,1.97-13.55,1.69-20.02-1.09c-7.1-3.05-11.56-8.46-12.2-16.3c-0.64-7.79,1.51-14.52,8.87-18.64
		C255.82,923.84,256.28,923.37,257.21,922.63z M277.66,940.82c-0.43-2.69-0.51-4.37-1-5.93c-0.97-3.09-2.96-5.18-6.39-5.43
		c-3.01-0.22-5.7,1.41-7.05,4.57c-1.91,4.46-2.25,9.06,0.19,13.44c2.62,4.7,8.48,5.17,11.44,0.71
		C276.43,945.82,276.96,942.76,277.66,940.82z M278.29,909.88c-0.15-1.83-0.09-3.02-0.37-4.12c-0.69-2.73-2.02-4.91-5.19-5.26
		c-2.93-0.33-5.33,1.09-6.54,4.23c-1.35,3.5-1.71,7.1-0.22,10.67c0.95,2.27,2.48,3.92,5.15,4.06c2.92,0.15,4.73-1.5,5.7-3.96
		C277.6,913.52,277.92,911.36,278.29,909.88z"/>
	<path class="st0" d="M328.87,924.77c-5.6-3.69-8.66-7.81-9.15-13.59c-0.85-10.05,4.29-17.42,14.1-20.06
		c5.27-1.42,10.57-1.5,15.75,0.23c12.7,4.24,16.69,19.72,7.7,29.56c-0.45,0.49-0.88,0.99-1.48,1.66c0.4,0.51,0.69,1.16,1.18,1.45
		c8.42,4.96,10.47,12.67,8.69,21.53c-1.69,8.43-7.73,13.02-15.74,14.91c-6.06,1.43-12.26,1.56-18.15-1.01
		c-13.69-5.97-16.35-23.28-5.13-33.24C327.14,925.77,327.76,925.48,328.87,924.77z M334.76,940.06c0.69,2.2,1.18,4.87,2.36,7.19
		c1.35,2.65,3.76,4.25,6.95,3.87c3.15-0.38,5.04-2.39,6.02-5.26c1.36-3.96,0.92-7.87-0.77-11.63c-1.32-2.94-3.46-4.88-6.91-4.76
		c-3.22,0.11-5.54,2.1-6.65,5.77C335.35,936.65,335.16,938.14,334.76,940.06z M347.27,910.52c0.08-0.01,0.17-0.02,0.25-0.03
		c-0.3-1.79-0.41-3.63-0.93-5.35c-0.99-3.28-3.21-4.86-6.16-4.7c-2.83,0.15-5.14,2.07-5.57,5.39c-0.33,2.57-0.28,5.32,0.24,7.86
		c0.83,4.03,3.71,6.15,6.92,5.75c2.9-0.37,4.84-2.92,5.22-6.92C347.32,911.85,347.27,911.18,347.27,910.52z"/>
	<path class="st0" d="M150.29-132.37c1.54,5.37,2.84,9.94,4.31,15.07c9.82-2.73,19.22-5.34,29.36-8.16
		c1.1,3.85,2.17,7.57,3.39,11.84c-9.88,2.87-19.37,5.62-29.29,8.5c2.58,9.3,5.04,18.19,7.58,27.39c-5.49,1.59-10.56,3.05-16.27,4.7
		c-6.3-22.16-12.55-44.13-18.97-66.72c15.32-4.35,30.41-8.64,45.83-13.02c1.15,4.08,2.17,7.7,3.36,11.92
		C169.85-138.04,160.38-135.29,150.29-132.37z"/>
	<path class="st0" d="M461.5-133.84c-8.37-1.85-16.13-3.57-24.5-5.42c-4.21,18.43-8.39,36.67-12.65,55.3
		c-5.52-1.24-10.67-2.39-16.53-3.7c4.14-18.39,8.21-36.49,12.44-55.3c-7.93-1.88-15.77-3.73-24.37-5.77
		c0.83-3.89,1.64-7.68,2.58-12.07c21.88,4.95,43.52,9.85,65.76,14.88C463.31-141.82,462.49-138.17,461.5-133.84z"/>
	<path class="st0" d="M423.51,878.77c0.94,4.7,1.77,8.86,2.67,13.32c-7.35,1.56-14.14,2.99-21.56,4.56
		c0.82,4.24,1.58,8.21,2.41,12.52c1.77-0.19,3.21-0.3,4.64-0.52c9.52-1.45,18.65,3.55,22.34,12.26c4.17,9.85,1.66,20.02-6.41,25.97
		c-7.62,5.61-20.42,7.67-29.44,4.52c-0.69-3.42-1.42-7.08-2.17-10.8c4.7,0.26,8.81,0.8,12.88,0.6c2.37-0.12,4.93-1.02,6.97-2.28
		c3.57-2.19,4.96-6.25,4.05-9.97c-0.93-3.81-3.9-6.65-8.15-7.02c-2.94-0.25-5.97,0.1-8.91,0.47c-1.95,0.25-3.83,1.02-6.54,1.78
		c-2.61-12.78-5.18-25.33-7.82-38.29C400.41,883.46,411.75,881.16,423.51,878.77z"/>
	<path class="st0" d="M-167.77,254.22c-21.92-7.72-43.33-15.26-65.29-22.99c1.84-5.32,3.61-10.42,5.56-16.07
		c17.8,6.24,35.41,12.41,53.6,18.79c3.98-11.18,7.85-22.07,11.91-33.49c3.89,1.31,7.57,2.56,11.75,3.97
		C-156.12,221.13-161.87,237.48-167.77,254.22z"/>
	<path class="st0" d="M648.57,21.22c-2.73,3.35-5.13,6.3-7.85,9.65c-13.7-11.12-27.2-22.07-40.97-33.25
		c14.6-17.99,28.94-35.67,43.67-53.82c4.39,3.56,8.58,6.96,13.21,10.72c-11.93,14.73-23.71,29.29-35.75,44.17
		C630.09,6.19,639.11,13.52,648.57,21.22z"/>
	<path class="st0" d="M649.31,39.39c16.71-15.84,33.23-31.5,49.86-47.26c4.03,3.95,7.89,7.72,12.16,11.89
		c-13.73,13.04-27.18,25.82-41.19,39.12c8.07,8.58,15.97,16.99,24.34,25.91c-3.09,2.67-6.04,5.21-9.38,8.1
		C673.42,64.83,661.47,52.22,649.31,39.39z"/>
	<path class="st0" d="M-30.02-56.54c4.69-3.19,9.18-6.23,14.06-9.55c10.64,15.58,21.12,30.92,31.97,46.8
		c9.84-6.65,19.43-13.12,29.45-19.89c2.33,3.37,4.53,6.56,7.03,10.18C37.87-19.03,23.63-9.34,8.97,0.65
		C-4.13-18.55-16.94-37.36-30.02-56.54z"/>
	<path class="st0" d="M-148.42,172.47c5.48-10.73,10.68-20.93,16.18-31.71c3.73,1.84,7.21,3.55,11.15,5.49
		c-7.96,15.66-15.76,31.02-23.93,47.09c-20.55-10.44-40.92-20.79-61.76-31.37c2.57-5.14,4.99-9.96,7.62-15.23
		C-182.18,155.35-165.61,163.75-148.42,172.47z"/>
	<path class="st0" d="M815.92,153.51c2.39,5.58,4.45,10.4,6.68,15.61c-17.65,7.57-34.7,14.89-52.13,22.37
		c4.66,11.04,9.17,21.7,13.84,32.76c-3.82,1.66-7.27,3.16-11.33,4.93c-6.93-16.19-13.75-32.14-20.74-48.46
		C773.55,171.62,794.44,162.69,815.92,153.51z"/>
	<path class="st0" d="M104.89-69.64c1.93,3.91,3.6,7.29,5.51,11.15c-15.71,7.93-31.1,15.7-47.12,23.79
		c-10.4-20.64-20.69-41.05-31.25-62c4.99-2.5,9.81-4.92,15.22-7.63c8.57,16.94,17,33.6,25.68,50.76
		C83.64-58.95,93.97-64.15,104.89-69.64z"/>
	<path class="st0" d="M-243.54,271.89c1.42-5.83,2.67-10.95,4.03-16.55c22.6,5.45,44.82,10.82,67.38,16.26
		c-1.39,5.67-2.68,10.92-4.06,16.55C-198.81,282.7-220.88,277.37-243.54,271.89z"/>
	<path class="st0" d="M200.05,951.39c-5.31-1.07-9.82-1.97-14.79-2.97c4.65-22.72,9.23-45.09,13.88-67.83
		c5.16,1.05,9.8,1.99,14.79,3C209.3,906.23,204.75,928.46,200.05,951.39z"/>
	<path class="st1" d="M6.3,673.84c-6.95,3-13.6,3.03-20.69,0.7c-6.22,2.79-12.81,3.85-19.04-0.18c-2.25,0.7-4.15,1.34-6.06,1.88
		c-11.79,3.36-18.81-4.9-19.21-13.08c-0.38-7.77,0.28-15.63,1.05-23.39c0.5-5.06,3.06-9.53,6.71-13.14
		c16.03-15.83,25.4-36.12,36.92-54.97c1.28-2.1,1.83-4.64,2.81-6.93c2.32-5.41,5.43-9.96,11.87-10.98c0.94-0.15,2.04-0.59,2.67-1.27
		c10.94-11.91,19.33-25.29,23.76-41.43c-1.67-0.85-3.26-1.68-4.87-2.46c-13.03-6.3-24.83-14.3-34.36-25.32
		c-10.15-11.74-16.18-25.14-15.8-40.96c0.23-9.58,3.39-18.29,8.4-26.34c9.86-15.83,23.88-27.21,39.76-36.45
		c22.96-13.35,47.81-20.75,74.17-23.57c14.08-1.5,28.09-3.76,41.41-8.83c4-1.52,7.81-3.7,11.44-6.01c2.68-1.71,4.7-4.23,4.42-8.31
		c-1.25-0.98-2.67-2.08-4.08-3.2c-9.56-7.6-11.38-17.37-5.15-27.83c3.75-6.3,7.7-12.48,11.33-18.84c3.2-5.61,4.98-11.52,3.64-18.19
		c-0.46-2.3,0.04-5.04,0.88-7.29c2.77-7.44,8.6-12.35,14.92-17.66c0.55,8.15-4.61,14.97-2.23,23.33c1.44-1.18,2.43-1.88,3.28-2.73
		c0.8-0.8,1.45-1.74,2.44-2.96c1.26,5.25,3.75,9.15,7.34,12.67c3.86,3.8,6.07,8.86,6.66,14.25c0.31,2.85,0.11,6.21-1.14,8.69
		c-3.06,6.07-2.73,11.78-0.12,17.77c1.12,2.57,2.2,5.3,2.52,8.05c1.28,10.91-8.21,20.64-19.98,20.73c-1.49,0.01-2.97-0.13-4.77-0.21
		c-1.25,1.81-2.52,3.73-3.86,5.6c-9.5,13.25-22.86,18.92-38.66,21.02c-27.15,3.61-53.71,9.76-78.69,21.51
		c-14.87,6.99-26.94,17.06-35.3,31.37c-6.82,11.67-8.03,23.75-3.1,36.44c1.93,4.98,5.24,8.64,10.14,10.4
		c4.19,1.5,8.63,2.92,13.02,3.12c7.29,0.34,14.64-0.12,21.93-0.7c2.48-0.2,5.03-1.48,7.25-2.76c22.84-13.23,42.81-30.62,64.83-44.99
		c10.35-6.76,18.48-14.8,24.56-25.51c6.16-10.85,13.22-21.2,20.01-31.69c13.64-21.07,30.93-38.73,50.67-54.12
		c4.2-3.27,8.28-6.73,12.07-10.46c3.51-3.45,2.96-5.61-1.95-8.91c-1.71,1.11-3.6,2.33-5.47,3.54c-3.22-6.91-3.04-9.93,1.07-17.79
		c-1.4-5.18-2.61-6.02-9.28-6.17c-0.19-2.86,1.03-5.35,2.98-6.99c4.76-3.99,5.17-9.36,5.68-14.88c0.51-5.62,1.05-11.27,2.07-16.82
		c1.61-8.81,5.19-16.78,10.78-23.89c4.99-6.35,8.7-13.33,9.54-21.64c0.36-3.58,0.15-6.6-3.6-8.98c2.64-3.85,5.14-7.51,7.81-11.4
		c-0.48-1.07-1-2.23-1.76-3.91c2.54-2.98,4.87-6.55,8-9.16c3.59-3,5.34-5.85,2.79-9.62c6.12-6.84,11.85-13.53,17.9-19.9
		c2.72-2.86,5.87-5.46,9.22-7.55c5.91-3.68,6.29-3.95,5.59-10.91c2.73-0.93,5.6-1.7,8.31-2.86c7.88-3.37,8.5-5.13,4.74-12.98
		c4.42-3.76,9.94-4.08,15.33-4.59c2.97-0.28,6-0.14,8.99-0.05c3.19,0.09,5.84-0.96,8.12-3.18c7.76-7.52,17-9.99,27.57-8.18
		c4.33,0.74,5.89,0.13,11.53-3.85c8.32,4.67,17.81,4.4,27.31,4.52c5.13,0.06,10.32,0.68,15.37,1.62
		c15.31,2.84,27.06,11.57,36.75,23.3c1.62,1.96,2.56,4.73,3.09,7.27c1.48,7.08,4.83,13.04,9.66,18.32c3.14,3.43,6.12,7,9.26,10.61
		c-3.13,4.73-3.44,9.32,0.16,13.92c3.14,4.02,7.01,2.73,10.91,1.57c6.59,8.5,4.62,16.61-0.75,24.81c4.07,7.24,4.56,15.1,4.33,23.2
		c-0.09,3.24,1.11,6.51,1.83,10.33c-0.28,0.52-0.81,1.53-1.38,2.52c-2.2,3.74-2.28,7.55-0.46,11.46c1.88,4.03,2.74,8.15,0.92,12.57
		c-1.94-1.48-3.78-2.87-6.29-4.77c-0.84,2.03-1.56,3.26-1.88,4.59c-1.68,7.15-0.78,14.24,0.64,21.3c0.36,1.79,0.96,3.55,1.26,5.35
		c1.11,6.79-1.49,12.01-7.77,16.03c2.35,1.17,4.07,2.08,5.84,2.89c7.72,3.54,15.48,6.99,23.17,10.59c10.45,4.89,21.5,5.89,32.73,4.7
		c14.23-1.51,28.38-3.65,42.6-5.23c6.44-0.72,12.97-0.59,19.44-1.11c8.62-0.69,17.26-1.36,25.82-2.55
		c10.33-1.43,20.24-1.26,29.46,4.41c4.56,2.81,9.56,2.64,14.52,1.3c3.37-0.91,6.72-1.97,9.94-3.3c9.42-3.88,19.13-3.95,28.99-2.51
		c0.33,0.05,0.66,0.18,0.98,0.16c10.11-0.67,16.8,5.03,22.85,12.1c4.98,5.82,10.44,11.24,15.17,17.25c2.06,2.62,3.42,6.14,4.09,9.45
		c1.92,9.6,1.24,19.27-0.9,28.75c-2.28,10.12-9.52,15.92-18.71,15.41c-0.66-1.15-1.36-2.37-2.2-3.84c-3.67,1.3-6.88,0.75-9.71-1.84
		c-0.68-0.62-1.89-1.09-2.77-0.98c-6.7,0.8-13.36-1.9-20.08-0.04c-4.35,1.21-8.53,0.25-12.61-1.42c-0.24-1.62-0.46-3.06-0.8-5.35
		c-5.05,0-10.12,0.51-15.04-0.14c-5.06-0.67-9.98-2.47-15.25-3.85c-1.04,0.77-2.21,1.64-3.8,2.81c-1.92-0.18-4.38,0.06-6.49-0.69
		c-5.15-1.84-10.48-3.56-15.09-6.38c-7.06-4.31-14.11-5.42-21.95-3.03c-3.65,1.11-7.42,1.93-11.18,2.59
		c-10.02,1.75-19.06,5.75-27.56,11.24c-1.89,1.22-4.11,2.51-6.25,2.65c-12.43,0.78-22.57,6.4-31.73,14.31
		c-1.01,0.87-1.98,1.77-3.4,3.05c-11.93-7.04-21.33-0.76-30.6,7.12c-0.96-2.16-1.74-3.89-2.64-5.93c-5.6-0.34-9.86,2.41-13.96,5.57
		c-2.64,2.03-5.08,4.33-7.85,6.17c-2.75,1.82-5.72,3.4-9.24,2.86c-0.62-2.17-1.21-4.24-1.81-6.32c-3.55,0.36-4.58,2.43-5.14,4.75
		c-3.4,13.98-12.32,23.82-22.98,32.95c-14.57,12.5-31.78,18.3-49.86,22.9C351.49,457,317.47,469.99,285.04,487
		c-8.86,4.65-17.26,10.06-24.68,16.9c-7.98,7.35-12.66,16.41-13.33,27.13c-1.14,18.1-7.4,34.36-16.51,49.76
		c-4.8,8.13-10.58,15.31-18.35,20.84c-4.51,3.22-8.34,7.17-10.82,12.24c-2.04,4.17-1.91,5.82,1.53,8.8
		c11.69,10.13,24.8,18.02,39.28,23.41c3.51,1.31,7.51,1.28,11.29,1.85c0.99,0.15,1.99,0.21,2.98,0.33
		c11.48,1.36,15.98,7.89,13.07,21.51c-2.37,0.71-5.13,1.53-9.17,2.74c-1.59,1.68-4.58,3.68-8.57,3.48
		c-0.16-0.01-0.38-0.03-0.49,0.05c-4.85,3.83-11.25,3.63-16.5,6.22c-8.23,4.06-16.1,4.17-24.46,0.37
		c-11.17-5.07-20.24-12.78-28.61-21.45c-8.66-8.99-18.62-16.03-29.86-21.45c-8.6-4.14-12.77-11.42-12.77-20.95
		c0-5.13,1.61-7.1,6.65-8.52c9.94-2.81,15.33-10.44,20.85-18.73c-1.69-1.36-2.91-2.35-4.66-3.76c2.12-2.6,4.24-5.2,6.38-7.83
		c-2.55-3.75-7.71-5.31-7.08-10.93c3.15,0.1,4.9-1.42,4.75-4.72c-0.18-4.04-2.13-5.65-8.44-6.84c-0.49-2.33-0.74-4.82-1.54-7.12
		c-1.75-5.1-5.34-7.36-10.47-6c-9.8,2.6-19.73,2.9-29.75,2.51c-1.16-0.04-2.33,0.01-3.5,0.01c-7.49,0.02-14.44,1.44-20.33,6.66
		c-3.85,3.42-8.4,6.04-12.28,9.43c-9.16,8.01-19.49,13.89-30.92,17.93c-10.87,3.85-20.51,9.74-28.18,18.37
		c-6.52,7.34-12.57,15.1-18.8,22.7c-0.73,0.89-1.32,1.93-1.83,2.97c-1.58,3.21-1.44,5.1,1.54,6.87c5.15,3.05,9.18,7.01,12.44,12
		c1.1,1.68,3.21,2.88,5.09,3.85c10.02,5.21,10.29,13.6,5.8,22.49c-2.65,5.26-8.97,7.22-14.72,5.3
		C8.84,675.05,7.65,674.43,6.3,673.84z"/>
	<path class="st1" d="M827.35,340.1c0.32,5.54,0.91,10.48,0.81,15.4c-0.1,4.87-2.98,7.63-7.25,7.88c-4.08,0.24-6.87-1.26-7.82-5.35
		c-1.21-5.25-1.68-10.67-2.53-16.47C816.34,341.06,821.4,340.62,827.35,340.1z"/>
	<path class="st1" d="M839.8,339.03c5.43-0.47,9.99-0.86,15.09-1.3c0.23,4.23,0.7,7.85,0.55,11.44c-0.18,4.14-2.8,6.67-6.48,6.97
		c-3.61,0.3-6.8-1.81-7.68-5.72C840.49,346.9,840.33,343.25,839.8,339.03z"/>
	<path class="st1" d="M242.54-107.68c-12.38-0.07-20.88-9.03-20.8-21.93c0.07-12.01,9.6-20.55,22.94-20.55
		c12.6,0.01,21.14,9.06,20.99,22.26C265.53-115.83,256.12-107.61,242.54-107.68z"/>
	<path class="st1" d="M341.23-152.66c13.26-0.12,22.55,8.27,22.75,20.56c0.21,12.76-8.66,21.96-21.27,22.06
		c-13.05,0.1-22.61-8.56-22.8-20.68C319.71-143.54,328.45-152.54,341.23-152.66z"/>
	<path class="st1" d="M482.11-79.18c2.14-5.47,4.04-10.35,6.19-15.84c5.14,2.21,9.99,3.95,14.49,6.34c4.12,2.18,5.35,5.97,3.96,9.68
		c-1.59,4.24-4.81,6.23-9.55,4.99C492.26-75.3,487.51-77.3,482.11-79.18z"/>
	<path class="st1" d="M492.9-106.64c1.85-4.69,3.59-9.09,5.54-14.02c3.86,1.62,7.44,2.84,10.74,4.6c3.58,1.91,4.73,5.42,3.46,8.85
		c-1.28,3.47-4.23,5.18-8.31,4.73c-0.98-0.11-1.98-0.3-2.89-0.65C498.7-104.19,496-105.35,492.9-106.64z"/>
	<path class="st1" d="M-38.98,7.51c-5.6,5.19-10.44,9.67-15.96,14.79C-58.59,13.4-62,5.06-65.41-3.28c0.24-0.32,0.48-0.64,0.72-0.96
		C-56.31-0.63-48.1,3.37-38.98,7.51z"/>
	<path class="st1" d="M583.33-74.39c-1.26,8.96-2.52,17.92-3.93,27.89c-6.47-3.81-12.23-7.2-18.76-11.05
		c7.47-6.01,14.48-11.65,21.5-17.28C582.53-74.69,582.93-74.54,583.33-74.39z"/>
	<path class="st1" d="M277.66,940.82c-0.71,1.94-1.23,5-2.8,7.36c-2.96,4.46-8.82,3.99-11.44-0.71c-2.45-4.38-2.1-8.98-0.19-13.44
		c1.35-3.16,4.04-4.79,7.05-4.57c3.43,0.25,5.42,2.34,6.39,5.43C277.15,936.45,277.23,938.13,277.66,940.82z"/>
	<path class="st1" d="M278.29,909.88c-0.37,1.48-0.69,3.64-1.47,5.61c-0.97,2.46-2.78,4.11-5.7,3.96c-2.67-0.14-4.2-1.79-5.15-4.06
		c-1.5-3.57-1.13-7.17,0.22-10.67c1.21-3.13,3.61-4.55,6.54-4.23c3.16,0.35,4.5,2.53,5.19,5.26
		C278.2,906.86,278.14,908.06,278.29,909.88z"/>
	<path class="st1" d="M334.76,940.06c0.39-1.92,0.58-3.41,1.01-4.83c1.11-3.66,3.42-5.66,6.65-5.77c3.45-0.12,5.59,1.82,6.91,4.76
		c1.69,3.76,2.13,7.67,0.77,11.63c-0.98,2.87-2.86,4.88-6.02,5.26c-3.2,0.38-5.61-1.21-6.95-3.87
		C335.95,944.93,335.46,942.27,334.76,940.06z"/>
	<path class="st1" d="M347.27,910.52c0,0.66,0.05,1.33-0.01,1.99c-0.38,4-2.32,6.56-5.22,6.92c-3.21,0.41-6.09-1.71-6.92-5.75
		c-0.52-2.54-0.58-5.28-0.24-7.86c0.43-3.32,2.74-5.24,5.57-5.39c2.94-0.15,5.16,1.42,6.16,4.7c0.52,1.72,0.63,3.56,0.93,5.35
		C347.44,910.49,347.35,910.51,347.27,910.52z"/>
</g>
<g>
	<path class="st2" d="M61.36,466.35l-33.33,44.37c0,0-51.43-18.69-56.31-62.36c-4.86-43.68,55.47-85.62,118.45-92.65
		c69.32-7.74,60.81-24.02,60.81-24.02s-20.77-11.04-9.51-29.78c11.28-18.74,17.7-25.63,15.33-37.69
		c-2.37-12.08,16.68-25.53,16.68-25.53s-0.59,5.56-2.22,11.55c-1.39,5.04-2.37,10.27-0.25,12.39c0,0,4.74-3.62,5.32-7.8
		c0.12,0.62,0.68,9.11,5.53,12.74c4.84,3.63,11.74,17.48,7.62,24.61c-9.03,15.65,8.66,22.05,0.19,36.21
		c-8.48,14.18-23.11,10.15-23.11,10.15s-10.3,22.42-36.72,26.02c-13.18,1.8-79.03,10.59-107.14,37.67
		C5.41,420.48-0.46,437.13,7.88,456.26C16.23,475.42,58.45,466.51,61.36,466.35L61.36,466.35z"/>
	<path class="st3" d="M176.14,299.63h0.21H176.14L176.14,299.63z M176.7,316.54c-3.57-6.05-1.5-16.13-0.56-16.91
		c-10.19,0.76-5.61,23.77-5.61,23.77s-6.07,1.44-5.93-4.74c0.14-6.15-5-6-5.93-4.75c-0.94,1.29-4.69,6.1-9.67,2.8
		c-4.99-3.28-3.26-13.88,1.87-17.33c-3.74,8.05,2.72,13.93,2.72,13.93s-1.45-9.21,0.8-15.7c1.43-4.17,3.78-9.44,8.89-8.1
		c5.1,1.34,1.04,13.73,1.08,13.56c1.37-1.71,10.11-13.28,7.33-17.59c-2.7-4.15,3.55-17.88,4.03-18.92c-0.3,0.65-2.85,5.49-8.87,3.27
		c-6.44-2.37-5.04-12.53-2.12-17.66c-7.19,4.68-3.93,22.11-6.22,29.29c-2.27,7.19-13.23,16.61-17.55,26.37
		c-4.32,9.72,4.05,14.72,7.23,15.74c4.27,1.41,4.85,6.33,5.6,10.08l-0.02-0.02c0,0,3.27,11.7-24.79,18.31
		c-29.01,6.84-84.2,8.82-122.34,40.05c-37.97,31.11-26.36,63.69-21.6,75.04c4.76,11.33,10.89,12.44,13.48,10.44
		c2.62-2.03,1.65-8.54-1.64-17.45c-9.26-24.95-7.91-39.89,19.38-64.25c27.24-24.39,80.57-33.65,96.63-36.11
		c15.63-2.43,42.06-8.62,42.72-23.2c0.75-8.86,13.23-1.32,19-4.26C180.41,329.24,180.52,323.05,176.7,316.54L176.7,316.54z"/>
	<path class="st2" d="M234.07,294.27c-1.13,6.49-27.24,20.68-49.07,46.58c-21.82,25.94-42.13,65.91-49.82,72.82
		c-7.67,6.9-19.92,19.9-35.25,27.58c-15.31,7.66-32.96,17.63-48.29,29.1c-15.3,11.51-11.48,23.78-17.62,28.4
		c-6.12,4.59-8.42,18.4-14.56,29.87c-6.12,11.5-10.52,16.85-15.14,20.71c-0.24,0.04,0.6,3.06-4.79,3.84
		c-5.35,0.74-9.94,6.11-12.26,13.78c-2.3,7.67-21.45,36.02-24.52,42.14c-3.06,6.15-9.18,10.75-16.07,19.19
		c-6.92,8.42-6.14,22.2-6.14,32.16c0,9.96,7.84,16.1,13.78,16.1c5.96,0,11.77-3.06,11.77-3.06s3.64,3.06,9,3.06
		c5.37,0,10.81-3.06,10.81-3.06s0.57,2.29,9,2.29c8.43,0,10.75-3.09,10.75-3.09s5.88,4.9,12.3,2.32c5.91-2.34,7.41-6.82,7.41-6.82
		s1.04-2.12,1.83-7.52c0.77-5.35-2.34-10.94-9.24-13.98c-6.91-3.09-5.38-8.44-13.03-13.07c-7.66-4.58-9.21-5.33,0-16.85
		c9.21-11.5,19.92-26.06,35.25-32.96c15.33-6.89,22.22-7.66,35.25-18.37c13.02-10.75,23.75-17.65,23.75-17.65s7.65-1.54,15.33-1.54
		c7.68,0,6.14,0.77,16.86,0c10.74-0.78,17.3-5.57,21.98-0.41c4.65,5.18,2.53,11.91,2.53,11.91s7.84-2.15,9.21,3.86
		c1.88,8.22-4.09,7.04-4.26,5.55c-0.15,0.17-2.65,5.64,6.84,10.99c-0.18,6.14-6,3.49-6,10.96c1.65-1.49,7.33,0.34,0.36,7.71
		c-8.44,10.76-13.79,12.27-18.41,13.04c-4.57,0.78-8.03,9.46-2.11,20.01c5.34,9.47,10.45,8.36,23.48,16.82
		c13.02,8.42,23.86,23.7,36.11,30.6c12.27,6.9,15.63,7.84,21.45,7.69c8.62-0.24,14.16-5.01,14.16-5.01s8.01,1.15,12.63-4.49
		c9.01,0.65,11.33-4.99,11.23-4.95c4.95,1.79,9.09-2.07,9.09-2.07s3.5-16.54-8.01-19.62c-11.47-3.07-15.07-1.64-20.29-3.5
		c-8.91-3.2-24.28-11.64-32.12-17.96c-7.69-6.24-11.99-7.33-8.15-14.46c6.52-12.06,13.73-11.53,22.99-23.75
		c9.29-12.22,19.95-34.49,21.48-49.06c1.53-14.56,1.53-26.06,16.87-39.1c15.33-13.01,43.68-26.04,65.91-34.48
		c22.21-8.42,30.93-11.97,52.1-17.63c20-5.31,33.48-7.8,46.73-17.63c17.65-13.01,24.54-19.15,30.67-34.47
		c1.32-3.98,1.88-10.04,5.35-9.96c4.22-0.08,1.46,6.82,1.53,6.89c10.91,0,17.66-9.96,22.24-12.25c4.61-2.33,10.74-5.39,11.5-0.8
		l0.77,4.62c0,0,9.96-9.97,18.37-10.74c8.44-0.73,13.03,3.06,13.03,3.06s4.62-6.1,16.09-12.25c11.51-6.12,21.46-5.35,21.46-5.35
		s13.04-10.74,30.68-13.81c17.6-3.06,20.35-7.82,33.53,0.38c13.19,8.19,23.13,7.26,23.13,7.26s-0.09-3.65,3.74-2.94
		c3.85,0.69,13.99,6.56,26.35,3.39c0.02-0.21,5.24,0.34,2.57,5.48c0.03,0.62,8.02,3.6,14.81,1.57c10.36-2.04,9.26,1.08,9.26,1.08
		s9.58-2.87,13.58,1.01c3.99,3.85,7.23,0.74,7.23,0.74c0.01,0,4.86,0.85,1.23,4.45c-0.07,0.02,13.78,3.04,20.25-13.4
		c2.37-6.08,5.46-34.06-3.11-41.55c-8.59-7.51-20.89-27.21-30.11-27.8c-9.2-0.59-17.21-3.06-27.12-1.36
		c-9.94,1.7-19.87,8.44-29.09,7.09c-9.23-1.36-10.91-10.55-36.91-6.24c-25.98,4.31-30.88,1.09-48.54,4.17
		c-17.62,3.06-49.05,6.88-61.28,3.06c-12.27-3.82-38.35-16.89-38.35-16.89s11.73-4.25,7.68-18.4c-2.67-9.31-2.72-22.19-0.42-27.54
		c0,0,5.21-1.5,6.55,5.35c-0.2-0.15,4.61-5.35-0.78-15.33c-3.06-7.68,3.09-13.06,3.09-13.06s-2.5-4.34-2.5-10.48
		c0-6.15,0.73-5.98-0.58-12.5c-1.3-6.52-3.93-10.21-3.93-10.21c0-0.01,5.24-7.47,5.24-13.44c0-5.94-4.37-12.37-4.37-12.37
		s-6.49,5.79-11.5-1.53c-5-7.31,0.79-13.03,0.79-13.03s-3.09-3.07-11.51-13.01c-8.45-9.98-6.29-15.9-9.96-22.25
		c-3.69-6.34-20.4-21.15-35.71-24.19c-15.33-3.07-27.89-1.09-34.04-2.62c-6.12-1.53-11.38-4.09-11.38-4.09s-2.42,5.63-10.86,4.09
		c-8.4-1.53-15.06,0.28-21.18,3.37c-6.12,3.06-6.4,8.11-14.05,8.11c-7.67,0-17.63-0.73-25.3,4.63c0,0,5.96,6.91,1.36,9.96
		c-4.62,3.07-8.24,4.59-14.37,5.37c0,0,3.06,7.64-2.29,9.94c-5.39,2.29-9.21,5.37-16.9,14.56c-7.64,9.21-9.15,10.64-13.76,13.7
		c0,0,4.59,5.45,0,8.54c-4.62,3.04-7.68,8.41-10.74,12.24c0,0,5.37,0.77,0.76,5.35c-4.61,4.62-6.12,9.98-6.12,9.98
		s3.84-1.6,3.84,4.59c0,6.22-2.25,12.16-2.25,12.16s-2.23,4.85-4.17,7.89c-3.83,6.88-10.08,9.87-14.27,29
		c-3.04,13.81-0.8,22.25-4.6,28.36c-6.66,4.95-6.12,10.46-6.12,10.46s8.52-2.7,9.76,5.35c-1.23,3.41-6.46,5.16-1.36,19.45
		C224.08,294.12,230.51,283.28,234.07,294.27L234.07,294.27z"/>
	<path class="st3" d="M225.83,643.31c2.22,1.54,4.89,4.89-1.2,8.58c-4.61-0.9-10.9-3.37-30.17-15.19
		c-4.67,5.84-23.99-9.81-23.99-9.81L195.94,650c5.23,4.35,17.6,11.86,22.29,12.66c-0.32-3.49,4.04-6.53,14.31-4.32
		c-1.15-5.35,6.49-8.48,13.66-7.43C240.75,647.98,233.66,645.45,225.83,643.31L225.83,643.31z"/>
	<path class="st3" d="M130.18,488.73c-0.85,2.53-1.01,11.48-13.17,24.39c12.04-9.75,0.53,6.17,9.16-4.59
		c8.61-10.76,12.19-14.19,21.52-24.97c9.34-10.75,9.7-12.34,14.74-19.79c5.07-7.45,9.07-7.49,10.01-10.56
		c-2.39,1.11-10.4,1.66-10.7,1.87c-7.17,6.47-2.86,5.54-12.88,12.71c1.42-2.3,8.2-16.88-6.17-1.83
		C128.31,481.03,131.05,486.21,130.18,488.73L130.18,488.73z"/>
	<path class="st3" d="M249.39,328.69c1.88-2.95,5.3-7.91,3.58-11.74c1.65,3.68-2.03-8.69-7.68,2.05l2.05-10.74
		c-8.68-3.58-1.4-10.15-5.09-12.79c0,0-38.04,29.43-64.43,70.15c-26.41,40.74-43.65,46.86-60.5,59.13
		c-16.87,12.25-59.77,44.44-68.21,52.11c-8.43,7.66-9.19,19.92-16.1,31.43c-6.89,11.5-9.83,25.41-19.19,39.73
		c-10.66,16.33-10.17,23.82-6.86,29.24c1.18-4.26,7.85-15.57,14.56-19.94c4.28,9.69-2.22,15.68-5.35,16.88
		c1.79,1.95,9.94,2.29,13.78-8.44c3.82-10.75,8.41-19.17,13.03-22.25c4.59-3.04,18.38-9.95,28.34-19.89
		c10-9.98,9.03-13.58,16.89-19.94c7.85-6.36,10.48-6.58,10.98-10.08c-8.03,2.9-15.6,2.43-15.6,2.43s9.21-3.86,16.85-12.28
		c9.26-10.17,11.76-9.33,19.17-18.4c7.43-9.06,10.73-19.91,22.22-29.87c11.51-9.99,17.66,10.71,26.83,10.71
		c9.21,0,13.8-3.82,19.92-3.82c6.15,0,84.46-31.23,84.46-31.23c-13.21-39.54-8.66-14.93-9.33-26.26
		c-0.77-13.02-21.96,32.06-15.33-37.93C249.22,338.08,245.75,334.46,249.39,328.69L249.39,328.69z"/>
	<path class="st3" d="M-48.2,630.91c0,0,8.48,13.45-1.83,19.29c0.66,1.4,8.31,0,8.31-3.18c6.17,2.82,5.33,10.49,5.17,10.34
		c2.84,0,7.98-2,6.14-7.52c6.32,0,7.82,7.16,7.82,7.16s6.67,0,6.15-7.33c8.35,0,9.33,7.69,9.33,7.69s7.47,0.65,7.33-8
		c5.64,0,7.64,6.8,7.64,6.8s6.5-4.63,12.32-0.8c0-2.67-4.17-4.34-4.02-4.53c-9.54-6.21-8.96-11.78-15.79-13.93
		c-6.82-2.17-14.46,2-16.42,2.44c-17.85,4.37-22.99-0.15-22.99-6.87s14.44-7.26,15.33-2.31c6.91-3.83,18.94-15.41,16.09-23.72
		c-2.83-8.32,0.17-9.84,5.49-12.16c-1.48-3.64-11.8-2-16.82,9.14c-4.99,11.16-12.44,2.22-12.44,2.22s-6.34,14.95-14.53,18.4
		C-43.56,623.22-35.21,627.08-48.2,630.91L-48.2,630.91z"/>
	<path class="st3" d="M261.74,491.38c0,0,0.03-0.25-18.63,9.76c-10.67,5.04-15.43,11.66-15.43,11.66s9.53-5.68,9.53,3.65
		c0,9.3,4.93,5.3,4.93,5.3C242.14,521.75,240.51,506.93,261.74,491.38L261.74,491.38z"/>
	<path class="st3" d="M643.37,304.7c-26.33,13.18-101.48,11.23-122.94,13.53c-21.46,2.29-32.95,0.76-39.84,2.29
		c-0.28-0.43,5.23,21.46,23.75,21.46c18.54,0,15.77,14.61-2.05,16.54c0,0,2.47,2.61,9.73,2.61c13.33,0,38.3-16.63,38.3-16.63
		s15.38-7.68,32.4-11.8c17-4.1,49.86-8.01,56.82-3.53c0.27,0.26-3.58-6.34-23.89-7.7C630.49,315.14,638.83,310.6,643.37,304.7
		L643.37,304.7z"/>
	<path class="st3" d="M747.58,337.72c-0.17,0.2,9.16-14.62-2.1-24.78c-10.06-9.09-13.43-19.76-25.53-23.07
		c-23.42-5.33-35.95,5.48-62.29,7.97c7.94,3.29,5.56,3.02,17.83,3.56c12.27,0.55,31.85-5.65,35.8,0.4
		c-6.42-1.5-14.67-0.94-17.96,1.53c-3.3,2.47-3.44,4.14-4.12,8.76c4.3-2.71,7.14-3.55,16.46-3.55c9.34,0,16.75,9.07,20.08,18.25
		c3.8-9.46,9.54-5.69,8.46-12.23C741.93,314.56,749.07,324.18,747.58,337.72L747.58,337.72z"/>
	<path class="st3" d="M638.54,315.38c9.5,0,14.44,11.19,23.77,11.19c0,0.37-4.26-14.2,9.12-14.2c0.77,0-0.39-4.86-9.64-5.21
		C647.97,306.65,648.59,312.95,638.54,315.38L638.54,315.38z"/>
	<path class="st3" d="M163.99,474.73c3.68,6.93,5.5,16.47,1.3,28.1c7.12-4.7,8.67,6.84,8.67,6.84s3.72-0.68,3.89-6.33
		c0.25-8.22,4.73-6.78,4.73-6.78s0.36-12.35,5.93-10.74c0.85-5.09-0.63-14.53,5.82-14.53c10.66,0,12.28-14.82,17.37-14.82
		c9.39,0,6.45-10,12.25-12.52c5.81-2.49-25.84,8.64-37.15,19.43C175.5,474.13,175.99,480.55,163.99,474.73L163.99,474.73z"/>
	<path class="st3" d="M255.68,179.86c-3.09,5.29,0.53,10.88-0.75,19.52c-0.14,0.11,4.76-4.69,4.46-11.97
		c-0.36-10.22,11.74-15.88,11.67-15.83C264.91,171.59,258.78,174.56,255.68,179.86L255.68,179.86z"/>
	<path class="st3" d="M640.55,298.48c0,0-14.38,9.78-39.42,9.78c-39.45-8.78-72.5-4.93-85.95-9.6c56.56,0,62.25-8.71,86.75-4.1
		C626.45,299.13,628.54,302.78,640.55,298.48L640.55,298.48z"/>
	<path class="st3" d="M568.72,309.38c-25.27,0-49.04,6.56-76.64,3.47c1.14-7.87-12.26-19.92-12.26-19.92s15.87,2.15,32.88,7.92
		C529.74,306.63,554.16,302.25,568.72,309.38L568.72,309.38z"/>
	<path class="st3" d="M449.16,326.65c-3.72,11.43,7.06,14.28,6.05,20.48c-11.58,0-6.35,6.33-14.14,11.63
		c2.65,3.55,6.39,10.64,4.91,16.25c-1.41,5.3-3.73,10.79-13.06,12.04c0.13,0,7.48-9.45,3.02-13.55
		c-8.57,11.55-19.43,10.96-19.55,10.96c0,0,19.17-14.33,15.1-26.98c-10.81-13.73-5.29-21.57-5.31-21.64
		c-0.24,6.66,4.68,13.98,16.57,10.64C442.74,346.63,439.87,332.03,449.16,326.65L449.16,326.65z"/>
	<path class="st3" d="M380.34,332.01c0,5.84,5.16,10.06,5.16,18.13c0,8.1-10.2,11.21-5.32,21.48c6.47,10.9,3.58,19.4,3.58,19.4
		s5.63-13.81,2.05-19.4c-3.58-5.64,2.04-10.15,2.04-10.15s-0.42,4,4.1,6.08c0,0-3.48-5.82-0.02-11.26c2.59-4.05,3.32-9.21,0.82-13.8
		c-3.69-6.6-8.48-6.6-8.48-10.72c0-4.14,3.06-6.47,3.06-6.47S380.34,326.22,380.34,332.01L380.34,332.01z"/>
	<path class="st3" d="M281.57,360.89c0,0-10.22,0-16.85,6.64c-6.65,6.64-6.12,4.6-6.12,4.6s3.06-3.56,1.01-11.24
		c-2.03-7.65-3.57-1.53-7.17,2.57c-3.56,4.07,0.03-4.1-0.49-9.73c-0.52-5.61-3.07-6.12-6.64-3.06c-3.58,3.06,3.58-3.58,3.06-10.73
		c-0.49-7.14,1.53-13.26-1.53-16.35c-3.09-3.06,13.81-10.73,24.51-1.52c10.76,9.2,11.26,17.37,11.26,17.37s-2.05-4.07,2.05-7.16
		c4.07-3.06,8.17,4.07,5.6,7.66c-2.54,3.6-1,10.22,5.11,13.8c6.15,3.58-4.06-4.59-0.52-9.19c3.58-4.61,5.65-4.09,4.62,1.01
		c-1.04,5.11,5.09,12.79,5.09,12.79l2.57-7.17c1.01-2.04,2.05,11.26,0.52,17.38c-1.53,6.13,3.06,16.83,6.64,30.11
		c3.56,13.31-20.44-15.81-22.47-18.38C289.74,377.72,290.78,363.95,281.57,360.89L281.57,360.89z"/>
	<path class="st3" d="M703.56,321.87c0,0,15.98-2.12,20.47,7.02c4.47,9.18,1.95,6.75-6.63,6.92
		C708.75,335.95,694.33,322.67,703.56,321.87L703.56,321.87z"/>
	<path class="st3" d="M685.69,320.97c-3.71-0.12-13.76,5.51-13.76,12.57c0,7.03,3.09,11.03,11.14,13.35
		c2.59,1.18,14.39,6.39,15.21-1.29c0.55-2.47,4.67-3.3,5-6.47c-0.33-5.87-4.82-4.58-8.55-6.98
		C690.98,329.75,699.39,321.43,685.69,320.97L685.69,320.97z"/>
	<path class="st3" d="M719.14,339.57c0,0-16.78,0.97-11.79,4.39c4.39,3.01,20.66,10.34,23.6,5.51
		C732.89,346.22,731.5,339.01,719.14,339.57L719.14,339.57z"/>
	<path class="st3" d="M705.71,346.79c0,0-1.41,8.28,8.48,11.16c9.94,2.9,16.33,0.25,16.91-3.6
		C716.69,354.35,709.97,350.08,705.71,346.79L705.71,346.79z"/>
	<path class="st3" d="M735.48,328.47c0.34,11.02-6.75,8.45-6.75,10.62c0,2.17,7.44,4.66,12.96-2.43
		C741.7,336.67,745.94,325.99,735.48,328.47L735.48,328.47z"/>
	<path class="st3" d="M739.68,340.7c-0.07,8.76-5.97,6.66-5.97,8.99c0,2.31,8.91,1.87,12.26-1.58
		C745.97,348.11,749.47,339.19,739.68,340.7L739.68,340.7z"/>
	<path class="st3" d="M741.7,352.11c-1.94,7.28-7.19,6.47-7.12,8.22c0.05,2,8.74,0.07,11.76-3.06
		C746.33,357.27,748.99,350.34,741.7,352.11L741.7,352.11z"/>
	<path class="st3" d="M393.18,119.41c-11.8-5.83-16.04-5.98-19.06-6.73c3.9,2.82,4.05,5.95,4.05,5.95s-4.29-3.9-11.4-3.9
		c3.35,0,3.75,5.56,3.75,5.56s-4.26-0.74-9.19,0.92c-10.32,3.37-15.63-0.12-15.63-0.12s6.94,8.81-5.05,9.58
		c-6.49,0-12.01,0.73-12.01,0.73s3.89,3.11,5.59,6.86c1.69,3.77,1.41,6.97,1.55,6.85c-4.65-5.44-7.89-0.92-7.89-0.92
		s3.11,6.07,3.11,12.06c0.01,6-3.11,14.93-3.11,14.93s5.93-14.88,13.24-16.7c6.36-1.58,8.51,1.7,8.51,1.7s0.14-9.75-5.23-13.53
		c0.03,0.12,4.29-2.23,12.01,3.02c14.25,7.49,14.99,5.99,22.51,5.99c7.51,0,7.41,1.95,7.51,3.01c0.09,1.04-2.72,4.62-7.51,5.26
		c-4.5,0-6.77,2.26-4.5,3.02c2.25,0.75,7.51-2.27,15.02,0c7.5,2.22,6.77-2.27,15.77-0.76c8.99,1.51,7.48-2.26,7.48-2.26
		s-9.75-2.26-15-0.76c-5.23,1.5-7.19-0.5-10.39-0.35c1.18-1.63,5.09,0.57,2.88-6.39c-2.33-7.49,1.5-12.76-0.74-19.52
		c-2.24-6.77,5.25,0.76,5.25,12.02c0.01,11.26,3.75,10.5,3.75,10.5s9.02,0,8.24-6c-0.73-6,4,2.3,9.99-3.7c6-6,17.78-10.57,22.3-9.07
		c0,0-7.52,1.51-7.52,6.77c0,5.26,1.5,1.5,6.02,2.25c4.49,0.76,8.24,4.52,8.24,4.52s0.62-6.26-3.02-9.79
		c5.27,2.25,6.74,6.77,6.74,21.01c0,14.28-3.72,18.8,2.28,33.04c5.99,14.26,2.62,14.73-1.48,13.5c6.19,7.67-1.71,11.16,6.44,16.71
		c-4.51,6.19-9.94,0.67-9.94-2.83c0,0-7.01,1.89-1.75,13.15c5.26,11.26,0.73,25.53,0.73,25.53s0.74-14.27-11.26-15
		c0,0,9.09,2.97,3.63,14.44c-4,8.39,3.14,11.83,3.14,11.83s-3.52-6.76,6.75-6.76c-1.5-8.94,4.56-10.93,8.27-8.28
		c6.12-2.61,5.99-12.73,2.24-19.5c-3.76-6.74,5.19-8.81,0-16.52c9.57,0,6.74,19.52,6.74,19.52s7.37-7.84,2.83-24.34
		c-4.5-16.52-9.76-14.37-8.82-22.96c-0.08,0.2,2.5,4.28,8.27,6.77c5.71,2.48,9.96,0.15,13.74,7.64c0,0,5.02-5.4-7.01-12.16
		c-11.99-6.74-6.56-9.66-14.24-14.98c-3.79-3.06-3.19-5.39-2.78-7.33c2.19,2.88,5.54,2.19,5.54,2.19s-6.08-9.82-6.51-17.4
		c-1.11-9.85-7.96-11.81-3.02-13.48c-1.59-5.56,3.02-3.02,3.02-3.02s-2.65-9.04-14.28-15.03c-11.63-5.98-4.39-11.28-4.49-11.23
		c8.38-7.65,7.75-16.84,5.51-22.27c-1.79-4.42-6.32-8.26-10.76-9.26l0.05,6.74c0,0-2.71-9.23-9.16-13.37c0,0.13,5.29,9.44-1.68,9.44
		c0,0-2.72-3.49-7.51-3.49c-8.39,0-12.26-6.34-12.26-6.34s1.94,12.27,12.66,12.27c8.03,0,6.03,9.47,6.03,9.47s4.94-2.89,2.48-8.44
		c5.57,2.08,9.06,6.27,10.27,11.48c1.24,5.19-2.74,9.07-2.74,9.07s-3.11,4.39-8.36,5.89l-7.28,1.78l-2.03,3c0,0-4.14-4.51-7.7-5.21
		c-3.07-0.6-4-0.55-4-0.55S394.03,115.1,393.18,119.41L393.18,119.41z"/>
	<path class="st3" d="M372.17,180.95c0,0-3.17-3.2,4.48-3.02c3.02,0.08,6,3.02,11.26,3.02c5.29,0,3.02,3.75,0.78,7.51
		c-2.26,3.75-7.52,2.27-15.78,1.5c-8.24-0.74-10.46-3.7-15.01,0.77c-3.14,3.06-3.76,7.47-3.76,7.47s-1.42-8.51,0.07-14.51
		c1.48-6.03,9.68-14,13.46-15.5c3.73-1.51-6.22,7.09,0.74,11.26C372.19,181.7,372.17,180.95,372.17,180.95L372.17,180.95z"/>
	<path class="st3" d="M419.47,180.95c0,0,2.15-3.02-4.49-3.02c-3.02,0-6,3.02-11.26,3.02c-5.27,0-3.01,3.75-0.76,7.51
		c2.25,3.75,7.52,2.27,15.76,1.5c8.27-0.74,10.51-3.75,15.01,0.77c4.52,4.49,3.75,7.47,3.75,7.47s1.66-4.49-0.74-15.01
		c-1.39-6.01-9-13.5-12.76-15c-3.74-1.51,5.65,6.26-0.73,11.26C420.99,181.16,419.47,180.95,419.47,180.95L419.47,180.95z"/>
	<path class="st3" d="M386.03,113.63c0,0-10.85-6.36-6.47-11.8c4.05-5.02,8.34-0.45,8.34-0.45s1.77-7.28,0.78-11.99
		c-1.01-4.71-6.25-8.44-14.28-9.78c-8.03-1.34-10.64,2.69-21.77-1.5c1.62,1.18,8.44,2.79,9.86,8.34c1.43,5.56,0,7.88,5.86,13.73
		c-14.51,0-7.93-13.97-18.29-16.91c2.62,2.02,1.06,7.43-4.18,5.35c-11.33-3.8-26.97,0-26.97,0s9.55,1.95,14.22,5.27
		c1.15,0.8,10.22,8.24-2.25,8.24c-12.04,0-23.16,2.9-27.42,5.26c10.34,0,12.3,6.93,12.3,6.93s-9.43,0.6-17.7,6.6
		c-8.29,6-16.42,23.27-21.24,23.25c2.5,3.27,9.02,1.52,9.02,1.52s-8.87,10.54-14.27,9.13c0,3.22,7.14,2.21,7.14,2.21
		s-1.2,0.99-9.33,3.84c-8.15,2.83-10.57,11.83-10.57,11.83s5.18-5.77,10.43-6.54c5.28-0.74,8.8-1.8,8.8-1.8s-1.57,0.99-2.97,4.27
		c-1.42,3.28,0.23,6.14-2.53,8.29c5.87,3.58,12.56-1.98,12.56-1.98s-2.53,3.51-0.5,6.99c2.08,3.48,4.86,1.48,6.45,5.82
		c1.58,4.38-0.1,7.61-0.1,7.61s5.5-4.36,6.86-12.22c1.34-7.87-2.49-16.94,0.05-22.72c-3.04,0-4.07,5.26-4.07,5.26
		s-2.33-10.11,0.57-14.42l-4.03,4.92c0,0-1.06-15.28,2.03-21.74c3.12-6.5,7.54-11.82,15.8-12.58c8.27-0.73,14.69-0.12,29.16,2.89
		c-10.46-4.96-9.43-11.39-9.43-11.39s3.45-2.74,11.62-2.74c8.15,0,13.44,2.56,13.44,2.69c0,0.13,0.54-6.04-4.79-9.31
		C347.92,104,366.9,103.12,386.03,113.63L386.03,113.63z"/>
	<path class="st3" d="M243,206.44c-1.5,1.64-8.27,6.22-11.62,17.6c-3.33,11.36-0.92,20.14-0.92,20.14s1.71-8.66,7.12-7.61
		c0.02,0.1,3.51,3.48,0.92,11.04c0,0,4.79-1.36,5.25-8.24c0.7,2.93,0.87,9.52-2.15,12.54c-3.02,2.99-6.87,12.98-6.12,17.47
		c0,0,3.02-7.51,7.52-11.26c4.51-3.76,6.07-5.04,8.92-10.97c4.12,5.81-0.65,12.4-0.68,12.48c0,0,4.49-3.68,6-6.74
		c1.57-3.09,3.02-8.27,1.51-12.03c0,0,4.94,1.24,3.44,8.74c-1.51,7.51,0.31,11.53,0.31,11.53s1.52-8.24,7.51-12.03
		c6.03-3.75,9.76,3.02,12.02-1.5c2.26-4.49,8.25-2.25,8.25-2.25s-5.21,3.02-5.99,9.01c-0.55,3.93,1.65,6.12,1.65,6.12
		s0.72-5.97,7.08-5.97c6.35,0,10.06-2.39,10.06-2.39c0-0.01,5.92,3.09-3.76,8.24c1.76,0.3,5.3,0.52,8.79-0.36
		c3.51-0.89,4.71-1.88,7.7-4.89c3.02-3,11.57-2.22,12.03-0.75c-0.35-0.1-7.18-0.1-8.31,6.21c0,0,6.56-4.89,17.02-1.27
		c0-0.1-8.02-4.92-8.71-16.96c-0.37-6.02-6.77-6.74-6.77-6.74c-1.47,6.94-8.66,4.54-10.86,6.76c-0.27-0.12-2.4-6.74,4.67-6.74
		c0.19,0.2-3.7-4.86-8.94-0.36c-5.26,4.49-9.53,5.82-13.17,3.62c7.78-2.12,3.42-8.34,10.58-10.18c-1.79-1.51-4.64-3.27-9.16,0
		c-4.55,3.2-3.51,6.14-8.41,6.14c0.26,0.17-3.37-2.67,1.42-6.14c4.79-3.51,3.88-7.27,3.86-7.37c-2.99,2.28-5.54,1.57-10.93,4.57
		c-5.39,3.02-8.03,8.45-8.03,8.45l7.99-2.56c1.95,1.94-0.12,4.78-5.78,6.43c-7.47,2.83-5.84,8.52-6.47,7.39
		c-0.55-0.96-3.37-8,2.59-16.79c5.04-6.47,9.54-5.56,11.99-10.74c2.47-5.16-0.38-10.25-0.38-10.25s-2.34,12.2-17.32,12.2
		c3.51-3.49,5.97-9.04,3-12.37c-2.48,4.36-4.02,7.18-10.49,9.01c-6.46,1.81-7.11,9.16-7.11,9.16s-3.35-6.34,0.4-10.86
		c3.2-3.84,10.2-7.33,8.69-14.59c-5.21,7.69-5.72,3.63-11.8,10.07c-0.45-5.25,6.21-7.35,2.89-15.28
		C247.53,202.85,244.51,204.77,243,206.44L243,206.44z"/>
	<path class="st3" d="M272.33,186.96c-2.28,4.91,2.93,9.69,0,19.51c0.02,0.26,4.22-5.26,3.75-9.75
		c-1.23-11.44,4.52-14.55,4.52-14.55S274.56,182.02,272.33,186.96L272.33,186.96z"/>
	<path class="st3" d="M261.2,179.59c-2.05,2.88-2.8,6.76-1.9,9.43c2.19,6.59,0.05,7.46,0.05,7.46s4.76-2.14,6.26-10.94
		c0.96-5.62,4.22-8.15,4.22-8.15S263.27,176.71,261.2,179.59L261.2,179.59z"/>
	<path class="st3" d="M430.52,280.49c0,0,18.43,12.32,18.43,26.14c0,13.81-12.28,27.68-12.28,27.68s8.64-21.52-4.28-21.52
		c-6.33,0-8.95,5.23-4.96,9.2c-7.7,0-6.14-13.84-6.14-13.84s-6.99,1.55-4.62,9.21c-6.36-2.67-3.06-13.25-3.06-13.25
		s2.76,6.06,13.82-0.57c3.09,9.24,13.86,3.09,12.31-4.59C438.22,291.25,436.67,289.72,430.52,280.49L430.52,280.49z"/>
	<path class="st3" d="M462.79,341.98c0,0-11.5-26.15,10.78-26.15c0,0.18-7.72-7.45-7.72-20.12c0-12.63,1.57-13.67,7.72-25.99
		c6.13-12.3-6.15-21.5-6.15-21.5s3.79,18.08-6.75,18.08c-11.99-0.01-11.69,6.51-11.69,6.51s10.75,1.61,10.75,16.91
		c-5.61-8.07-15.38-7.67-15.38-7.67s18.47,12.78,12.32,29.17C450.48,327.63,456.67,332.74,462.79,341.98L462.79,341.98z"/>
	<path class="st3" d="M321.37,134.45c-1.09-2.15-6.15-7.68-15.36-3.06c-9.23,4.6-6.45,15.75-5.09,21.8
		c1.38,6.03,5.09,15.09,5.09,15.09s-1.43-12,3.06-16.92c1.72-2.05-3.48-4.07-2.1-7.23c1.38-3.18,5.19-1.98,9.77-0.44
		c4.63,1.52,5.88-2.99,5.88-4.37L321.37,134.45L321.37,134.45z"/>
	<path class="st3" d="M450.5,124.21c0,0,8.19-4.6,11.8,0.5c3.55,5.14,6.15,16.4,6.15,21.53c0,5.13-3.09,15.87-3.09,15.87
		s-3.06-5.63-4.6-8.19c-1.55-2.55-1.55-5.1,0-4.59l-0.52-15.38l-2.57,2.04c-2.04-1.52-3.6-6.65-4.09-9.23
		C453.07,124.21,450.5,124.21,450.5,124.21L450.5,124.21z"/>
	<path class="st3" d="M447.26,118.48c0,0,8.46-4.67,14.12-0.59c-2.37-6.24-7.28-5.47-7.28-5.47s1.06-5.62,0-10.08
		c-1.04-4.32-5.34-7.51-5.34-7.51S451.9,109.84,447.26,118.48L447.26,118.48z"/>
	<path class="st3" d="M359.96,161.56c0.75,0,6.91-0.15,9.75,0.37c0,0-17.24-0.54-23.07,8.92c-0.16,0.05,1.8-7.49,8.42-9.46
		c0.34,0.05-3.11-1.48-2.9-4.88c0.26-3.81,4.34-5.36,3.01-4.54c-1.36,0.8-3.01,5.05,0.34,7.35c3.34,2.24,13.02-0.4,13.04-0.47
		C366.65,160.38,363.47,161.09,359.96,161.56L359.96,161.56z"/>
	<path class="st3" d="M427.64,161.56c-0.77,0-5.72-0.15-8.52,0.37c0,0,16-0.54,21.86,8.92c0.15,0.05-1.81-7.49-8.42-9.46
		c-0.35,0.05,3.11-1.48,2.89-4.88c-0.27-3.81-4.35-5.36-3.01-4.54c1.36,0.8,3.01,5.05-0.35,7.35c-3.35,2.24-12.98-0.4-13.01-0.47
		C420.94,160.38,424.14,161.09,427.64,161.56L427.64,161.56z"/>
	<path class="st3" d="M328.56,182.11c0,0,0.22,5.89-9.19,9.5c-9.46,3.6-14.88,7.35-14.88,18.35c0.01,6.66-4.24,9.5-4.24,9.5
		s4.79-1.5,6.59-5.21c4.1-8.51,4.65-13.45,9.87-13.45c-1.11,1.93-3.11,4.34-1.11,11.99c1.74,6.61,5.11,5.36,2.7,11.85
		c0.03,0.03,5.6-2.1,3.57-8.19c0.2-0.03,4.45,2.05,2.05,8.19c0,0,5.49-1.92,3.37-6.69c-0.05-0.12,9.05,6.33,8.64,17.01
		c-0.43,10.71,4.39,20.42,7.99,22.99c0-0.01-4.65-11.69-2.05-17.93c2.57-6.27,7.41-15.08,3.07-23.58
		c0.87,5.91-0.22,10.66-2.55,11.78c-2.34,1.13-7.19,0.52-5.14-7.19c2.02-7.68,5.49-13.6,1.01-19.45c1.64,3.46-0.39,9.73-3.07,9.73
		c-2.66,0-3.6-2.02-2.04-6.15c0,0-5.12,2.05-5.65,6.67c0,0-8.05-5.56-2.43-13.23C330.73,190.91,328.56,182.11,328.56,182.11
		L328.56,182.11z"/>
	<path class="st3" d="M471.01,171.35c0,0,12.78,9.23,14.85,23.06c0,0,1.32-11.63-5.7-20.66c7.24-3.65,7.14-12.67,7.14-12.67
		s-2.05,5.16-6.27,7.35C476.8,170.64,475.07,170.64,471.01,171.35L471.01,171.35z"/>
	<path class="st2" d="M376.43,196.88l0.36,0.47c1.2,1.28,5.63,4.64,19.01,4.64c16.49,0,19.38-3.74,19.38-3.74L376.43,196.88
		L376.43,196.88z"/>
	<path class="st3" d="M370.18,202.2l3.88,7.97c1.38,0,1.6-6.63,2.37-9.71C376.43,200.46,371.88,197.76,370.18,202.2L370.18,202.2z"
		/>
	<path class="st3" d="M420.44,202.62l-3.31,7.92l-2-10.06C415.13,200.48,418.75,198.17,420.44,202.62L420.44,202.62z"/>
	<polygon class="st3" points="386.59,196.52 385.49,197.03 386.8,202.34 388.52,197.45 386.59,196.52 	"/>
	<path class="st3" d="M391.67,196.52l-1.08,0.52c0.33,2.57,0.64,5.45,1.32,5.45c0.73,0,1.13-2.64,1.69-5.04L391.67,196.52
		L391.67,196.52z"/>
	<path class="st3" d="M407.78,197.93L407.78,197.93l0.46,1.89l-0.23,1.98l-0.18,1.17c0.55,0.24,3.02-1.95,3.09-6.03L407.78,197.93
		L407.78,197.93z"/>
	<path class="st3" d="M401.75,197.45c0.53,2.27,0.87,4.94,1.7,4.94c0.83,0,0.99-3.11,1.32-5.36l-1.09-0.52L401.75,197.45
		L401.75,197.45z"/>
	<path class="st3" d="M396.65,197.45l1.73,4.89c0.69,0,0.94-3.09,1.29-5.31l-1.07-0.52L396.65,197.45L396.65,197.45z"/>
	<path class="st3" d="M384.33,247.87c0-1.11,0.87-13.2,10.79-4.4c3.39,2.99,2.07-3.55,9.45-3.55c7.41,0,4.79,8.17,2.63,12.42
		c-2.27,4.41-4.86,0.66-10.27-0.08C391.52,251.52,384.33,257.86,384.33,247.87L384.33,247.87z"/>
	<path class="st3" d="M409.57,264.98c0,0-6.44-2.27-15.43-1.11c-14.69,1.9-9.97,3.65-13.1,4.72c-3.14,1.04,2.09,3.65,5.74,4.21
		c3.68,0.48,6.29,3.64,8.91,3.64c2.62,0-1.56-2.6,2.1-5.23c3.69-2.62,2.4-3.11,7.63-2.08C410.64,270.18,414.28,267.07,409.57,264.98
		L409.57,264.98z"/>
	<path class="st3" d="M377.69,256.12c0,0-3.04,3.6-2.42,1.16c0.59-2.43,2.66-10.07,4.06-10.07c1.42,0-0.43,2.83,0.77,5.25
		C381.33,254.92,380.48,255.54,377.69,256.12L377.69,256.12z"/>
	<path class="st3" d="M414.67,257.36c0,0,2.61,4.79,2.02,2.37c-0.63-2.44-0.9-11.38-3.34-11.38c-2.45,0,0.1,2.91-1.12,5.36
		C411.01,256.15,411.73,257.24,414.67,257.36L414.67,257.36z"/>
	<path class="st3" d="M445.33,390.27c-4.28,2-4.28,11.88-3.83,12.27c-6.49,0.16-5.35-12.27-5.35-12.27s-6.89,9.98-7.98,16.27
		c-1.11,6.32-7.38,7.47-7.38,7.47c0-0.75-0.32-6.66-4.59-12.25c1.53,7.79-0.12,14.95-4.09,18.92c0,0-0.55-5.14-4.33-5.14
		c-3.77,0-3.21,8.29-3.07,8.45c-4.26-0.01-5.37-8.67-5.37-8.45c-4.66,0-8.78,3.63-6.56,9.39c-7.71-2.2-7.21-21.66-12.57-27.01
		c0,0-3.09,9.19-0.78,15.33c-3.95,0-7.89-4.12-8.63-17.13c-0.78-13.04-6.7-13.53-6.7-13.53s2.31-10.91-6.75-10.91
		c-9.05,0-26.69-10.89-26.69-1.69c0,9-3.23,27.87-72.96,76.91c6.29-1.13-0.2,12.81,4.47,12.17c-9.74,6.42-7.51,12.32-25.49,20.95
		c-19.14,9.18-19.9,16.1-21.45,18.37c-1.53,2.32-1.3-11.53,7.91-19.2c7.97-6.64,15.86-13.9,19.1-17.97
		c-5.64,1.93-19.53,9.52-25.27,14.13l-6.63,6.17c-1.23,1.25-9.12,7.87-12.28,5.61c-3.09,5.39-2.81,9.84-4.72,12.44
		c-2.32,3.22-5.21,5.57-11.63,9.49c21.46-5.07,12.67,12.47,13.05,12.13c0,0,20.64-12.13,42.89-23.65
		c22.22-11.5,27.66-12.12,42.14-18.38c3.7-1.6,15.72-7.19,20.07-9.19c18.66-7.33,73.15-28.19,87.77-31.5
		c13.79-3.11,28.04-9.61,39.32-17.57c13.03-9.19,13.79-11.41,19.1-17.78C453.7,393.94,449.6,388.24,445.33,390.27L445.33,390.27z"/>
	<path class="st2" d="M239.81,332.72c0,0,3.51,11.76,6.32,32.32c3.2,23.53-5.6,34.93-5.6,34.93s-5.91,8.2-8.1,12.86
		c-2.19,4.67-2.75,7.42-1.36,11.26c1.36,3.86,7.37,6.84,7.37,6.84s8.51-1.85,5.26,8.52c-3.27,10.36-4.15,21.62,5.47,30.22
		c9.66,8.56,24.21,5.35,30.27,0.78c0,0,9.66,0.03,11.03-3.45c1.41-3.48-5.47-10.22-5.47-10.22s2.22-10.89,2.97-16.2
		c0,0,8.84,0.77,10.37-1.8c1.55-2.57-1.04-8.1-1.04-8.1s7.82-6.86,6.3-13.92c0,0,7.11-5.02,10.66-10.79l13.58,2.62l-2.57-12.67
		c0,0,5.18-6.95,5.81-10.38c4.04,0.39,4.88-0.69,8.16-0.97l11.06,7.76l1.51-12.92c3.01-3.55,9.57-11.67,8.53-17.23
		c-1.04-5.58-4.34-15.43-19.79-21.2c0,0-4.82,0.78-3.3-4.79c1.47-5.57,8.32-7.85,8.32-7.85s20.41-27.16-6.23-43.51
		c-26.59-16.37-60.53-24.36-80.48-13.42C238.9,282.38,226.41,303.61,239.81,332.72L239.81,332.72z"/>
	<path class="st3" d="M245.07,315.73c-0.12,2.55-0.52,8.14,4.42,33.16c4.92,24.98,2.44,39.28,2.52,39.69
		c-0.35,0.12,6.54-5.97,9.83-16.37c3.23-10.35-4.2-10.76-3.04-32.38c0.83-14.63,6.05-15.36,6.05-15.36s-1.3,9.62-0.57,14.27
		c2.33,14.42,7.44,12.87,7.44,12.87s-5.36-30.23,13.36-37.51c8.58-3.37,10.23,4.86,10.23,4.86s10.45-2.47,3.86-20.59
		c5.3-4.32,11.88-4.84,6.04-9.66c-5.82-4.79-16.68,0.57-20.24,2.59c-3.53,2.05-1.04-13.15-8.11-11.57c-7.09,1.5-2.53,9.1-7.07,13.7
		C251.39,312.11,255.24,339.55,245.07,315.73L245.07,315.73z"/>
	<path class="st3" d="M315.1,300.61c-5.06-2.8-0.97,12.13-3.2,20.48c-2.28,8.38-6.28,21.53-0.97,19.76
		c5.3-1.81,2.76-4.33,7.55-12.69C323.26,319.81,338.92,313.66,315.1,300.61L315.1,300.61z"/>
	<path class="st3" d="M272.24,468.58c0,0-5.64-0.79-10.97-6.59c-5.34-5.8-4.6-11.45-0.18-14.98c7.02-5.61,17.03,4.5,17.03,4.5
		c0-0.01,2-9.12-4.84-11.89c-6.82-2.76-12.39-4.27-14.68-8.56c-2.29-4.29-2.52,5.09-7.8,11.93c-5.31,6.83-3.62,19.64,1.96,23.67
		C258.33,470.68,270.25,470.11,272.24,468.58L272.24,468.58z"/>
	<path class="st3" d="M274.31,429.96c0,0-10.74,1.32-12.79-4.76c-1.09-10.41-3.56-10.41-3.51-10.84c-2.26,0.78-5.14-0.97-5.26-5.09
		c-0.12-4.09,0.27-6.03,2.94-11.85c3.02-8.62,10.09-10.15,11.89-2.32c1.79,7.85,3.95,9.67,8.5,8.14
		c4.55-1.53,17.59,2.74,17.36,11.02c-0.18,6.24-3.48,5.96-3.48,5.96s-8.19-10.19-15.53-4.36
		C267.13,421.71,274.31,429.96,274.31,429.96L274.31,429.96z"/>
	<path class="st3" d="M304.91,397.49c0,0-14.83-1.32-15.93-10.06c-1.11-8.74,1.67-12.32,1.09-17.08c-0.63-4.74,5.33-2.27,10.09-2.89
		c4.76-0.59,15.31-0.32,17.49,4.24c2.17,4.58,1.84,9.59,1.84,9.59s-8.52-8.52-15.94-3.28C298.92,381.24,298.05,388.96,304.91,397.49
		L304.91,397.49z"/>
	<path class="st3" d="M323.03,363.71c0,0-5.75-8.98-10.05-9.21c5.22-3.27,17.97-6.88,26.57-6.42c8.59,0.5,15.23,6.84,13.95,13.88
		c-0.82,4.49-2.2,3.95-2.2,3.95s-3-12.64-13.18-9.34c-9.81,3.37-6.03,11.81-5.76,11.81C329.35,371.68,323.03,363.71,323.03,363.71
		L323.03,363.71z"/>
	<path class="st3" d="M284.91,464.22c0,0-14.07-19.99-20.34-11.82C258.4,460.45,284.91,464.22,284.91,464.22L284.91,464.22z"/>
	<path class="st3" d="M277.62,420.91c-6.96,4.94,16.85,16.02,16.85,16.02S284.59,415.99,277.62,420.91L277.62,420.91z"/>
	<path class="st3" d="M307.73,382.73c-8.64,5.85,13.5,19.13,13.88,18.59C322.02,400.78,316.36,376.89,307.73,382.73L307.73,382.73z"
		/>
	<path class="st3" d="M339.86,362.38c-10.05,2.83,6.82,22.41,7.36,22.02C347.76,384.01,349.9,359.55,339.86,362.38L339.86,362.38z"
		/>
	<path class="st3" d="M248.79,405.23c0,0-3.35,3.93-0.56,8.39c2.79,4.5,1.69,7.3,0,11.24l-1.68,3.9c0,0-3.36-7.84-6.74-8.97
		C236.45,418.69,244.85,404.69,248.79,405.23L248.79,405.23z"/>
	<path class="st3" d="M382.35,197.87L382.35,197.87l-0.45,1.9l0.23,1.97l0.14,1.16c-0.52,0.22-2.99-1.95-3.06-6.02L382.35,197.87
		L382.35,197.87z"/>
	<path class="st2" d="M278.03,260.51l-2.55,1.88l-3.37-3.97l-6.31,0.66c-0.07,0.05-5.95,4.45-11.71,7.8
		c-8.43,4.94-11.92,11.33-11.25,20.69c0.22,3.18,2.81,5.6,6.02,5.74c3.18,0.07,5.94-2.33,6.37-5.49l-0.02,0.17
		c0.46-2.64,3.33-2.64,4.29-2.64c0.36,0,1.49,0,5.11,3.62c8.37,8.38,17.02,9.49,24.39,9.49c4,0,7.53,4.98,8.47,6.73
		c1.35,2.58,4.34,3.88,7.16,3.12l1.64-0.77c2.03,2.47,4.7,4.17,6.47,5.29l0.13,0.07c1.98,1.23,5.21,5.4,6.77,7.82
		c1.38,2.1,3.81,3.11,6.24,2.72c2.47,6.69,6.49,14.49,14.35,14.49c2.35,0,4.49-1.35,5.55-3.45l0.65-2.8l-1.2-3.72l-1.61-3.82v-0.11
		l1.53-0.99l4.55-3.46c1.48,0.97,2.76,2.72,2.76,5.96c0,13.5,13.19,19.1,20.15,20.17c3.06,0.46,5.99-1.38,6.91-4.35
		c0.9-2.97-0.54-6.15-3.36-7.47c-1.38-0.64-6.63-3.82-6.63-7.33l0.71-4.2c1.11-5.11,2.81-12.81-3.56-19.15
		c-2.5-2.52-5.23-3.98-7.64-5.24c-4.01-2.17-5.53-2.95-5.91-7.36c-0.35-3.39-3.37-5.92-6.8-5.59c-4.27,0.38-5.87,4.39-6.54,6.72
		l-3.13,0.73l-0.65,0.45l1.11-3.73c0.9-2.6,2.03-5.74,2.03-9.28c0-2.53-0.56-5.27-2.18-8.12c-1.44-2.6-4.53-3.81-7.35-2.9
		l-4.03,4.07l-2.76-3.34l-3.55-1.41c-0.38-2.27-1.91-4.25-4.2-4.97c-2.4-0.76-4.94,0.05-6.52,1.88l-2.21,0.66l-1.84,0.52l-0.19-1.58
		c-0.69-2.57-3.9-2.96-6.57-3.11l-4.67-1.18l-4.12,2.53C285.26,261.32,281.02,258.75,278.03,260.51L278.03,260.51z M270.51,270.71
		l-0.35,1.52L270.51,270.71L270.51,270.71z M280,271.45l-0.28,1.41L280,271.45L280,271.45z M352.14,312.22l0.02,1.67l-0.54,1.92
		L352.14,312.22L352.14,312.22z"/>
	<path class="st3" d="M269.54,264.07c0,0-6.15,4.61-12.3,8.19c-6.14,3.58-8.71,7.68-8.19,14.86c0,0,0.89-7.99,10.46-7.99
		c3.04,0,5.74,1.63,9.51,5.44c6.47,6.44,12.86,7.68,20,7.68c8.78,0,13.97,10.04,13.97,10.04s-0.62-13.35-10.91-14.65
		c-10.27-1.32-7.69-5.14-7.69-6.69c0.58,4.56,8.94,4.64,11.89,5.52c2.91,0.89,6.88,2.77,6.58,5.79c3.5,0,3.04-4.43,3.5-4.4
		c0.41,0.02,5.84,3.27,3.79,9.04c-2.01,5.74,1.93,8.14,6.03,10.71c4.12,2.55,8.73,9.71,8.73,9.71s0-7.66-2.55-10.22
		c-2.56-2.58,5.64,3.57,7.16,7.69c1.55,4.09,4.68,16.87,10.78,16.87c-0.06-0.05-4.7-6.26-2.05-10.73c2.62-4.47,7.66-2.87,7.66-8.73
		c0.1-0.07,12.82,0.25,12.82,13.31c0,11.73,14.88,14.03,14.88,14.03s-10.27-4.65-10.27-13c0-5.72,4.62-13.31-1.04-18.95
		c-5.63-5.66-14.27-4.89-15.35-16.4c-0.71,0.08-4.74,9.87,2.57,14.35c-0.13,0.03-12.69,0.34-9.76-7.69
		c-5.37,3.06-0.34,9.34-0.34,9.34s-9.91-5.34-9.91-12.43c0-7.08,6.07-12.77,2.05-19.99c0.37,3.02,0.6,6.79-4.03,10.37
		c-4.58,3.6-7.45,8.76-4.17,12.7c0.13,0.13-5.82-1.79-5.71-6.36c0.07-4.15,2.14-4.39,3.66-9.01c1.55-4.62-2.55-8.19-2.55-8.19
		s2.05,5.63-2.05,8.71c-4.1,3.06-10.25-0.52-8.2-5.14c2.05-4.61,4.25-3.58,4.76-8.71c-1.12,1.94-4.73,2.32-7.82,3.35
		c-3.06,1.01-6.97,0.23-8.73,6.4c-7.1-7.07,1.67-12.6,1.67-12.6s-11.93-0.74-12.41,6.95c-1.88-0.6-3.97-5.63,2.1-9.21
		c-1.29-0.57-10.97,1.31-11.68,8.76C276.38,272.83,270.11,272.44,269.54,264.07L269.54,264.07z"/>
</g>
</svg>
